<?xml version="1.0" encoding="UTF-8"?>
<svg id="White" xmlns="http://www.w3.org/2000/svg" xmlns:xlink="http://www.w3.org/1999/xlink" viewBox="0 0 1001 1001">
  <defs>
    <style>
      .cls-1, .cls-2, .cls-3, .cls-4, .cls-5, .cls-6, .cls-7 {
        stroke: #231f20;
      }

      .cls-1, .cls-2, .cls-3, .cls-5, .cls-6, .cls-7 {
        stroke-miterlimit: 10;
      }

      .cls-1, .cls-8, .cls-4 {
        fill: none;
      }

      .cls-1, .cls-3, .cls-5, .cls-6, .cls-7 {
        stroke-width: 2px;
      }

      .cls-2, .cls-5, .cls-6 {
        fill: #fff;
      }

      .cls-3 {
        fill: #d71920;
      }

      .cls-4 {
        stroke-width: .3px;
      }

      .cls-9 {
        fill: #231f20;
        font-size: 38.37px;
      }

      .cls-9, .cls-5, .cls-7 {
        font-family: AgencyFB-Bold, 'Agency FB';
        font-weight: 700;
      }

      .cls-5, .cls-7 {
        font-size: 472.56px;
      }

      .cls-7 {
        fill: url(#Circles);
      }
    </style>
    <pattern id="Circles" x="0" y="0" width="46.77" height="54" patternTransform="translate(.5 .5)" patternUnits="userSpaceOnUse" viewBox="0 0 46.77 54">
      <g>
        <rect class="cls-8" x="0" width="46.77" height="54"/>
        <g>
          <path class="cls-4" d="M41.06,21.58c.41-.72.17-1.63-.55-2.05-.72-.41-1.63-.17-2.05.55-.41.72-.17,1.63.55,2.05.72.41,1.63.17,2.05-.55Z"/>
          <path class="cls-4" d="M39.81,29.92c-.41-.72-1.33-.96-2.05-.55-.72.41-.96,1.33-.55,2.05.41.72,1.33.96,2.05.55.72-.41.96-1.33.55-2.05Z"/>
          <path class="cls-4" d="M31.56,16.83c-.41-.72-1.33-.96-2.05-.55-.72.41-.96,1.33-.55,2.05.41.72,1.33.96,2.05.55.72-.41.96-1.33.55-2.05Z"/>
          <path class="cls-4" d="M24.02,23.62c.41-.72.17-1.64-.55-2.05-.72-.41-1.64-.17-2.05.55-.41.72-.17,1.63.55,2.05.72.41,1.63.17,2.05-.55Z"/>
          <path class="cls-4" d="M26.81,29.83c-.41-.72-1.33-.96-2.05-.55-.72.41-.96,1.33-.55,2.05.41.72,1.33.96,2.05.55.72-.41.96-1.33.55-2.05Z"/>
          <circle class="cls-4" cx="32.43" cy="36" r="1.5"/>
          <path class="cls-4" d="M6.52,23.67c-.41-.72-.17-1.64.55-2.05.72-.41,1.63-.17,2.05.55.41.72.17,1.63-.55,2.05-.72.41-1.63.17-2.05-.55Z"/>
          <path class="cls-4" d="M7.15,31.25c.41-.72,1.33-.96,2.05-.55.72.42.96,1.33.55,2.05-.41.72-1.33.96-2.05.55-.72-.41-.96-1.33-.55-2.05Z"/>
          <path class="cls-4" d="M12.42,16.42c.41-.72,1.33-.96,2.05-.55.72.41.96,1.33.55,2.05-.41.72-1.33.96-2.05.55-.72-.41-.96-1.33-.55-2.05Z"/>
          <circle class="cls-4" cx="18" cy="35" r="1.5"/>
          <path class="cls-4" d="M41.02,50c-.41.72-1.33.96-2.05.55-.72-.41-.96-1.33-.55-2.05.41-.72,1.33-.96,2.05-.55.72.41.96,1.33.55,2.05Z"/>
          <path class="cls-4" d="M25.31,50.08c-.41.72-1.33.96-2.05.55-.72-.42-.96-1.33-.55-2.05.41-.72,1.33-.96,2.05-.55.72.41.96,1.33.55,2.05Z"/>
          <circle class="cls-4" cx="31.18" cy="45" r="1.5"/>
          <path class="cls-4" d="M5.77,50.38c.41.72,1.33.96,2.05.55.72-.41.96-1.33.55-2.05-.41-.72-1.33-.96-2.05-.55-.72.41-.96,1.33-.55,2.05Z"/>
          <circle class="cls-4" cx="15.84" cy="43" r="1.5"/>
          <path class="cls-4" d="M40.27,3.75c.41.72.17,1.63-.55,2.05-.72.42-1.63.17-2.05-.55-.41-.72-.17-1.64.55-2.05.72-.41,1.63-.17,2.05.55Z"/>
          <path class="cls-4" d="M32.48,9.75c-.41.72-1.33.96-2.05.55-.72-.41-.96-1.33-.55-2.05.41-.72,1.33-.96,2.05-.55.72.41.96,1.33.55,2.05Z"/>
          <path class="cls-4" d="M25.36,3.12c.41.72.17,1.63-.55,2.05-.72.41-1.63.17-2.05-.55-.41-.72-.17-1.64.55-2.05.72-.41,1.63-.17,2.05.55Z"/>
          <path class="cls-4" d="M6.49,3.75c-.41.72-.17,1.63.55,2.05.72.42,1.63.17,2.05-.55.41-.72.17-1.64-.55-2.05-.72-.41-1.64-.17-2.05.55Z"/>
          <path class="cls-4" d="M14.79,8.75c.41.72,1.33.96,2.05.55.72-.41.96-1.33.55-2.05-.41-.72-1.33-.96-2.05-.55-.72.41-.96,1.33-.55,2.05Z"/>
          <circle class="cls-4" cx="47.52" cy="17.5" r="1.5"/>
          <circle class="cls-4" cx="47.5" cy="45" r="1.5"/>
          <path class="cls-4" d="M25.81,39.33c-.41-.72-1.33-.96-2.05-.55-.72.41-.96,1.33-.55,2.05.41.72,1.33.96,2.05.55.72-.41.96-1.33.55-2.05Z"/>
          <path class="cls-4" d="M17.31,26.33c-.41-.72-1.33-.96-2.05-.55-.72.41-.96,1.33-.55,2.05.41.72,1.33.96,2.05.55.72-.41.96-1.33.55-2.05Z"/>
          <path class="cls-4" d="M33.55,24.45c-.41-.72-1.33-.96-2.05-.55-.72.41-.96,1.33-.55,2.05.41.72,1.33.96,2.05.55.72-.41.96-1.33.55-2.05Z"/>
          <path class="cls-4" d="M24.56,12.83c-.41-.72-1.33-.96-2.05-.55-.72.41-.96,1.33-.55,2.05.41.72,1.33.96,2.05.55.72-.41.96-1.33.55-2.05Z"/>
          <path class="cls-4" d="M8.06,12.33c-.41-.72-1.33-.96-2.05-.55-.72.41-.96,1.33-.55,2.05.41.72,1.33.96,2.05.55.72-.41.96-1.33.55-2.05Z"/>
          <path class="cls-4" d="M40.12,12.25c-.41-.72-1.33-.96-2.05-.55-.72.41-.96,1.33-.55,2.05.42.72,1.33.96,2.05.55.72-.41.96-1.33.55-2.05Z"/>
          <path class="cls-4" d="M8.31,39.33c-.41-.72-1.33-.96-2.05-.55-.72.41-.96,1.33-.55,2.05.41.72,1.33.96,2.05.55.72-.41.96-1.33.55-2.05Z"/>
          <path class="cls-4" d="M16.81,52.08c-.41-.72-1.33-.96-2.05-.55-.72.41-.96,1.33-.55,2.05.41.72,1.33.96,2.05.55.72-.42.96-1.33.55-2.05Z"/>
          <path class="cls-4" d="M34.56,52.58c-.41-.72-1.33-.96-2.05-.55-.72.41-.96,1.33-.55,2.05.41.72,1.33.96,2.05.55.72-.42.96-1.33.55-2.05Z"/>
          <circle class="cls-4" cx="39.5" cy="41.25" r="1.5"/>
          <circle class="cls-4" cx="46.77" cy="54.75" r="1.5"/>
          <path class="cls-4" d="M47.8,26.2c-.42-.72-1.33-.96-2.05-.55-.72.41-.96,1.33-.55,2.05.41.72,1.33.96,2.05.55.72-.41.96-1.33.55-2.05Z"/>
          <circle class="cls-4" cx="47.48" cy="8" r="1.5"/>
          <circle class="cls-4" cx="45.48" cy="36.25" r="1.5"/>
        </g>
        <g>
          <circle class="cls-4" cx=".75" cy="17.5" r="1.5"/>
          <circle class="cls-4" cx=".73" cy="45" r="1.5"/>
          <circle class="cls-4" cy="54.75" r="1.5"/>
          <path class="cls-4" d="M1.03,26.2c-.42-.72-1.33-.96-2.05-.55-.72.41-.96,1.33-.55,2.05.41.72,1.33.96,2.05.55.72-.41.96-1.33.55-2.05Z"/>
          <circle class="cls-4" cx=".72" cy="8" r="1.5"/>
          <circle class="cls-4" cx="-1.28" cy="36.25" r="1.5"/>
        </g>
        <g>
          <path class="cls-4" d="M16.81-1.93c-.41-.72-1.33-.96-2.05-.55-.72.41-.96,1.33-.55,2.05.41.72,1.33.96,2.05.55.72-.41.96-1.33.55-2.05Z"/>
          <path class="cls-4" d="M34.56-1.43c-.41-.72-1.33-.96-2.05-.55-.72.41-.96,1.33-.55,2.05.41.72,1.33.96,2.05.55.72-.41.96-1.33.55-2.05Z"/>
          <circle class="cls-4" cx="46.77" cy=".75" r="1.5"/>
        </g>
        <circle class="cls-4" cy=".75" r="1.5"/>
      </g>
    </pattern>
  </defs>
  <rect class="cls-2" x=".5" y=".5" width="1000" height="1000"/>
  <g>
    <text id="Back" class="cls-5" transform="translate(287.48 456.71)"><tspan x="0" y="0">S</tspan></text>
    <path class="cls-6" d="M481.98,423.83c0,22-10.92,33-32.77,33h-108.68c-21.69,0-32.53-11-32.53-33v-86.07h53.99v73.61h65.99v-70.84l-108.22-102.45c-7.85-7.54-11.77-17.15-11.77-28.84v-80.3c0-22.15,10.84-33.23,32.53-33.23h108.68c21.84,0,32.77,10.92,32.77,32.77v80.76h-53.99v-68.07h-65.99v65.3l108.22,101.99c7.85,7.38,11.77,17.15,11.77,29.3v86.07Z"/>
    <path class="cls-6" d="M481.73,423.96c0,22-10.92,33-32.77,33h-108.68c-21.69,0-32.53-11-32.53-33v-86.07h53.99v73.61h65.99v-70.84l-108.22-102.45c-7.85-7.54-11.77-17.15-11.77-28.84v-80.3c0-22.15,10.84-33.23,32.53-33.23h108.68c21.84,0,32.77,10.92,32.77,32.77v80.76h-53.99v-68.07h-65.99v65.3l108.22,101.99c7.85,7.38,11.77,17.15,11.77,29.3v86.07Z"/>
    <path class="cls-6" d="M481.49,424.08c0,22-10.92,33-32.77,33h-108.68c-21.69,0-32.53-11-32.53-33v-86.07h53.99v73.61h65.99v-70.84l-108.22-102.45c-7.85-7.54-11.77-17.15-11.77-28.84v-80.3c0-22.15,10.84-33.23,32.53-33.23h108.68c21.84,0,32.77,10.92,32.77,32.77v80.76h-53.99v-68.07h-65.99v65.3l108.22,101.99c7.85,7.38,11.77,17.15,11.77,29.3v86.07Z"/>
    <path class="cls-6" d="M481.24,424.2c0,22-10.92,33-32.77,33h-108.68c-21.69,0-32.53-11-32.53-33v-86.07h53.99v73.61h65.99v-70.84l-108.22-102.45c-7.85-7.54-11.77-17.15-11.77-28.84v-80.3c0-22.15,10.84-33.23,32.53-33.23h108.68c21.84,0,32.77,10.92,32.77,32.77v80.76h-53.99v-68.07h-65.99v65.3l108.22,101.99c7.85,7.38,11.77,17.15,11.77,29.3v86.07Z"/>
    <path class="cls-6" d="M481,424.33c0,22-10.92,33-32.77,33h-108.68c-21.69,0-32.53-11-32.53-33v-86.07h53.99v73.61h65.99v-70.84l-108.22-102.45c-7.85-7.54-11.77-17.15-11.77-28.84v-80.3c0-22.15,10.84-33.23,32.53-33.23h108.68c21.84,0,32.77,10.92,32.77,32.77v80.76h-53.99v-68.07h-65.99v65.3l108.22,101.99c7.85,7.38,11.77,17.15,11.77,29.3v86.07Z"/>
    <path class="cls-6" d="M480.75,424.45c0,22-10.92,33-32.77,33h-108.68c-21.69,0-32.53-11-32.53-33v-86.07h53.99v73.61h65.99v-70.84l-108.22-102.45c-7.85-7.54-11.77-17.15-11.77-28.84v-80.3c0-22.15,10.84-33.23,32.53-33.23h108.68c21.84,0,32.77,10.92,32.77,32.77v80.76h-53.99v-68.07h-65.99v65.3l108.22,101.99c7.85,7.38,11.77,17.15,11.77,29.3v86.07Z"/>
    <path class="cls-6" d="M480.5,424.57c0,22-10.92,33-32.77,33h-108.68c-21.69,0-32.53-11-32.53-33v-86.07h53.99v73.61h65.99v-70.84l-108.22-102.45c-7.85-7.54-11.77-17.15-11.77-28.84v-80.3c0-22.15,10.84-33.23,32.53-33.23h108.68c21.84,0,32.77,10.92,32.77,32.77v80.76h-53.99v-68.07h-65.99v65.3l108.22,101.99c7.85,7.38,11.77,17.15,11.77,29.3v86.07Z"/>
    <path class="cls-6" d="M480.26,424.69c0,22-10.92,33-32.77,33h-108.68c-21.69,0-32.53-11-32.53-33v-86.07h53.99v73.61h65.99v-70.84l-108.22-102.45c-7.85-7.54-11.77-17.15-11.77-28.84v-80.3c0-22.15,10.84-33.23,32.53-33.23h108.68c21.84,0,32.77,10.92,32.77,32.77v80.76h-53.99v-68.07h-65.99v65.3l108.22,101.99c7.85,7.38,11.77,17.15,11.77,29.3v86.07Z"/>
    <path class="cls-6" d="M480.01,424.82c0,22-10.92,33-32.77,33h-108.68c-21.69,0-32.53-11-32.53-33v-86.07h53.99v73.61h65.99v-70.84l-108.22-102.45c-7.85-7.54-11.77-17.15-11.77-28.84v-80.3c0-22.15,10.84-33.23,32.53-33.23h108.68c21.84,0,32.77,10.92,32.77,32.77v80.76h-53.99v-68.07h-65.99v65.3l108.22,101.99c7.85,7.38,11.77,17.15,11.77,29.3v86.07Z"/>
    <path class="cls-6" d="M479.77,424.94c0,22-10.92,33-32.77,33h-108.68c-21.69,0-32.53-11-32.53-33v-86.07h53.99v73.61h65.99v-70.84l-108.22-102.45c-7.85-7.54-11.77-17.15-11.77-28.84v-80.3c0-22.15,10.84-33.23,32.53-33.23h108.68c21.84,0,32.77,10.92,32.77,32.77v80.76h-53.99v-68.07h-65.99v65.3l108.22,101.99c7.85,7.38,11.77,17.15,11.77,29.3v86.07Z"/>
    <path class="cls-6" d="M479.52,425.06c0,22-10.92,33-32.77,33h-108.68c-21.69,0-32.53-11-32.53-33v-86.07h53.99v73.61h65.99v-70.84l-108.22-102.45c-7.85-7.54-11.77-17.15-11.77-28.84v-80.3c0-22.15,10.84-33.23,32.53-33.23h108.68c21.84,0,32.77,10.92,32.77,32.77v80.76h-53.99v-68.07h-65.99v65.3l108.22,101.99c7.85,7.38,11.77,17.15,11.77,29.3v86.07Z"/>
    <path class="cls-6" d="M479.27,425.19c0,22-10.92,33-32.77,33h-108.68c-21.69,0-32.53-11-32.53-33v-86.07h53.99v73.61h65.99v-70.84l-108.22-102.45c-7.85-7.54-11.77-17.15-11.77-28.84v-80.3c0-22.15,10.84-33.23,32.53-33.23h108.68c21.84,0,32.77,10.92,32.77,32.77v80.76h-53.99v-68.07h-65.99v65.3l108.22,101.99c7.85,7.38,11.77,17.15,11.77,29.3v86.07Z"/>
    <path class="cls-6" d="M479.03,425.31c0,22-10.92,33-32.77,33h-108.68c-21.69,0-32.53-11-32.53-33v-86.07h53.99v73.61h65.99v-70.84l-108.22-102.45c-7.85-7.54-11.77-17.15-11.77-28.84v-80.3c0-22.15,10.84-33.23,32.53-33.23h108.68c21.84,0,32.77,10.92,32.77,32.77v80.76h-53.99v-68.07h-65.99v65.3l108.22,101.99c7.85,7.38,11.77,17.15,11.77,29.3v86.07Z"/>
    <path class="cls-6" d="M478.78,425.43c0,22-10.92,33-32.77,33h-108.68c-21.69,0-32.53-11-32.53-33v-86.07h53.99v73.61h65.99v-70.84l-108.22-102.45c-7.85-7.54-11.77-17.15-11.77-28.84v-80.3c0-22.15,10.84-33.23,32.53-33.23h108.68c21.84,0,32.77,10.92,32.77,32.77v80.76h-53.99v-68.07h-65.99v65.3l108.22,101.99c7.85,7.38,11.77,17.15,11.77,29.3v86.07Z"/>
    <path class="cls-6" d="M478.54,425.55c0,22-10.92,33-32.77,33h-108.68c-21.69,0-32.53-11-32.53-33v-86.07h53.99v73.61h65.99v-70.84l-108.22-102.45c-7.85-7.54-11.77-17.15-11.77-28.84v-80.3c0-22.15,10.84-33.23,32.53-33.23h108.68c21.84,0,32.77,10.92,32.77,32.77v80.76h-53.99v-68.07h-65.99v65.3l108.22,101.99c7.85,7.38,11.77,17.15,11.77,29.3v86.07Z"/>
    <path class="cls-6" d="M478.29,425.68c0,22-10.92,33-32.77,33h-108.68c-21.69,0-32.53-11-32.53-33v-86.07h53.99v73.61h65.99v-70.84l-108.22-102.45c-7.85-7.54-11.77-17.15-11.77-28.84v-80.3c0-22.15,10.84-33.23,32.53-33.23h108.68c21.84,0,32.77,10.92,32.77,32.77v80.76h-53.99v-68.07h-65.99v65.3l108.22,101.99c7.85,7.38,11.77,17.15,11.77,29.3v86.07Z"/>
    <path class="cls-6" d="M478.05,425.8c0,22-10.92,33-32.77,33h-108.68c-21.69,0-32.53-11-32.53-33v-86.07h53.99v73.61h65.99v-70.84l-108.22-102.45c-7.85-7.54-11.77-17.15-11.77-28.84v-80.3c0-22.15,10.84-33.23,32.53-33.23h108.68c21.84,0,32.77,10.92,32.77,32.77v80.76h-53.99v-68.07h-65.99v65.3l108.22,101.99c7.85,7.38,11.77,17.15,11.77,29.3v86.07Z"/>
    <path class="cls-6" d="M477.8,425.92c0,22-10.92,33-32.77,33h-108.68c-21.69,0-32.53-11-32.53-33v-86.07h53.99v73.61h65.99v-70.84l-108.22-102.45c-7.85-7.54-11.77-17.15-11.77-28.84v-80.3c0-22.15,10.84-33.23,32.53-33.23h108.68c21.84,0,32.77,10.92,32.77,32.77v80.76h-53.99v-68.07h-65.99v65.3l108.22,101.99c7.85,7.38,11.77,17.15,11.77,29.3v86.07Z"/>
    <path class="cls-6" d="M477.55,426.05c0,22-10.92,33-32.77,33h-108.68c-21.69,0-32.53-11-32.53-33v-86.07h53.99v73.61h65.99v-70.84l-108.22-102.45c-7.85-7.54-11.77-17.15-11.77-28.84v-80.3c0-22.15,10.84-33.23,32.53-33.23h108.68c21.84,0,32.77,10.92,32.77,32.77v80.76h-53.99v-68.07h-65.99v65.3l108.22,101.99c7.85,7.38,11.77,17.15,11.77,29.3v86.07Z"/>
    <path class="cls-6" d="M477.31,426.17c0,22-10.92,33-32.77,33h-108.68c-21.69,0-32.53-11-32.53-33v-86.07h53.99v73.61h65.99v-70.84l-108.22-102.45c-7.85-7.54-11.77-17.15-11.77-28.84v-80.3c0-22.15,10.84-33.23,32.53-33.23h108.68c21.84,0,32.77,10.92,32.77,32.77v80.76h-53.99v-68.07h-65.99v65.3l108.22,101.99c7.85,7.38,11.77,17.15,11.77,29.3v86.07Z"/>
    <path class="cls-6" d="M477.06,426.29c0,22-10.92,33-32.77,33h-108.68c-21.69,0-32.53-11-32.53-33v-86.07h53.99v73.61h65.99v-70.84l-108.22-102.45c-7.85-7.54-11.77-17.15-11.77-28.84v-80.3c0-22.15,10.84-33.23,32.53-33.23h108.68c21.84,0,32.77,10.92,32.77,32.77v80.76h-53.99v-68.07h-65.99v65.3l108.22,101.99c7.85,7.38,11.77,17.15,11.77,29.3v86.07Z"/>
    <path class="cls-6" d="M476.82,426.42c0,22-10.92,33-32.77,33h-108.68c-21.69,0-32.53-11-32.53-33v-86.07h53.99v73.61h65.99v-70.84l-108.22-102.45c-7.85-7.54-11.77-17.15-11.77-28.84v-80.3c0-22.15,10.84-33.23,32.53-33.23h108.68c21.84,0,32.77,10.92,32.77,32.77v80.76h-53.99v-68.07h-65.99v65.3l108.22,101.99c7.85,7.38,11.77,17.15,11.77,29.3v86.07Z"/>
    <path class="cls-6" d="M476.57,426.54c0,22-10.92,33-32.77,33h-108.68c-21.69,0-32.53-11-32.53-33v-86.07h53.99v73.61h65.99v-70.84l-108.22-102.45c-7.85-7.54-11.77-17.15-11.77-28.84v-80.3c0-22.15,10.84-33.23,32.53-33.23h108.68c21.84,0,32.77,10.92,32.77,32.77v80.76h-53.99v-68.07h-65.99v65.3l108.22,101.99c7.85,7.38,11.77,17.15,11.77,29.3v86.07Z"/>
    <path class="cls-6" d="M476.33,426.66c0,22-10.92,33-32.77,33h-108.68c-21.69,0-32.53-11-32.53-33v-86.07h53.99v73.61h65.99v-70.84l-108.22-102.45c-7.85-7.54-11.77-17.15-11.77-28.84v-80.3c0-22.15,10.84-33.23,32.53-33.23h108.68c21.84,0,32.77,10.92,32.77,32.77v80.76h-53.99v-68.07h-65.99v65.3l108.22,101.99c7.85,7.38,11.77,17.15,11.77,29.3v86.07Z"/>
    <path class="cls-6" d="M476.08,426.78c0,22-10.92,33-32.77,33h-108.68c-21.69,0-32.53-11-32.53-33v-86.07h53.99v73.61h65.99v-70.84l-108.22-102.45c-7.85-7.54-11.77-17.15-11.77-28.84v-80.3c0-22.15,10.84-33.23,32.53-33.23h108.68c21.84,0,32.77,10.92,32.77,32.77v80.76h-53.99v-68.07h-65.99v65.3l108.22,101.99c7.85,7.38,11.77,17.15,11.77,29.3v86.07Z"/>
    <path class="cls-6" d="M475.83,426.91c0,22-10.92,33-32.77,33h-108.68c-21.69,0-32.53-11-32.53-33v-86.07h53.99v73.61h65.99v-70.84l-108.22-102.45c-7.85-7.54-11.77-17.15-11.77-28.84v-80.3c0-22.15,10.84-33.23,32.53-33.23h108.68c21.84,0,32.77,10.92,32.77,32.77v80.76h-53.99v-68.07h-65.99v65.3l108.22,101.99c7.85,7.38,11.77,17.15,11.77,29.3v86.07Z"/>
    <path class="cls-6" d="M475.59,427.03c0,22-10.92,33-32.77,33h-108.68c-21.69,0-32.53-11-32.53-33v-86.07h53.99v73.61h65.99v-70.84l-108.22-102.45c-7.85-7.54-11.77-17.15-11.77-28.84v-80.3c0-22.15,10.84-33.23,32.53-33.23h108.68c21.84,0,32.77,10.92,32.77,32.77v80.76h-53.99v-68.07h-65.99v65.3l108.22,101.99c7.85,7.38,11.77,17.15,11.77,29.3v86.07Z"/>
    <path class="cls-6" d="M475.34,427.15c0,22-10.92,33-32.77,33h-108.68c-21.69,0-32.53-11-32.53-33v-86.07h53.99v73.61h65.99v-70.84l-108.22-102.45c-7.85-7.54-11.77-17.15-11.77-28.84v-80.3c0-22.15,10.84-33.23,32.53-33.23h108.68c21.84,0,32.77,10.92,32.77,32.77v80.76h-53.99v-68.07h-65.99v65.3l108.22,101.99c7.85,7.38,11.77,17.15,11.77,29.3v86.07Z"/>
    <path class="cls-6" d="M475.1,427.28c0,22-10.92,33-32.77,33h-108.68c-21.69,0-32.53-11-32.53-33v-86.07h53.99v73.61h65.99v-70.84l-108.22-102.45c-7.85-7.54-11.77-17.15-11.77-28.84v-80.3c0-22.15,10.84-33.23,32.53-33.23h108.68c21.84,0,32.77,10.92,32.77,32.77v80.76h-53.99v-68.07h-65.99v65.3l108.22,101.99c7.85,7.38,11.77,17.15,11.77,29.3v86.07Z"/>
    <path class="cls-6" d="M474.85,427.4c0,22-10.92,33-32.77,33h-108.68c-21.69,0-32.53-11-32.53-33v-86.07h53.99v73.61h65.99v-70.84l-108.22-102.45c-7.85-7.54-11.77-17.15-11.77-28.84v-80.3c0-22.15,10.84-33.23,32.53-33.23h108.68c21.84,0,32.77,10.92,32.77,32.77v80.76h-53.99v-68.07h-65.99v65.3l108.22,101.99c7.85,7.38,11.77,17.15,11.77,29.3v86.07Z"/>
    <path class="cls-6" d="M474.61,427.52c0,22-10.92,33-32.77,33h-108.68c-21.69,0-32.53-11-32.53-33v-86.07h53.99v73.61h65.99v-70.84l-108.22-102.45c-7.85-7.54-11.77-17.15-11.77-28.84v-80.3c0-22.15,10.84-33.23,32.53-33.23h108.68c21.84,0,32.77,10.92,32.77,32.77v80.76h-53.99v-68.07h-65.99v65.3l108.22,101.99c7.85,7.38,11.77,17.15,11.77,29.3v86.07Z"/>
    <path class="cls-6" d="M474.36,427.64c0,22-10.92,33-32.77,33h-108.68c-21.69,0-32.53-11-32.53-33v-86.07h53.99v73.61h65.99v-70.84l-108.22-102.45c-7.85-7.54-11.77-17.15-11.77-28.84v-80.3c0-22.15,10.84-33.23,32.53-33.23h108.68c21.84,0,32.77,10.92,32.77,32.77v80.76h-53.99v-68.07h-65.99v65.3l108.22,101.99c7.85,7.38,11.77,17.15,11.77,29.3v86.07Z"/>
    <path class="cls-6" d="M474.11,427.77c0,22-10.92,33-32.77,33h-108.68c-21.69,0-32.53-11-32.53-33v-86.07h53.99v73.61h65.99v-70.84l-108.22-102.45c-7.85-7.54-11.77-17.15-11.77-28.84v-80.3c0-22.15,10.84-33.23,32.53-33.23h108.68c21.84,0,32.77,10.92,32.77,32.77v80.76h-53.99v-68.07h-65.99v65.3l108.22,101.99c7.85,7.38,11.77,17.15,11.77,29.3v86.07Z"/>
    <path class="cls-6" d="M473.87,427.89c0,22-10.92,33-32.77,33h-108.68c-21.69,0-32.53-11-32.53-33v-86.07h53.99v73.61h65.99v-70.84l-108.22-102.45c-7.85-7.54-11.77-17.15-11.77-28.84v-80.3c0-22.15,10.84-33.23,32.53-33.23h108.68c21.84,0,32.77,10.92,32.77,32.77v80.76h-53.99v-68.07h-65.99v65.3l108.22,101.99c7.85,7.38,11.77,17.15,11.77,29.3v86.07Z"/>
    <path class="cls-6" d="M473.62,428.01c0,22-10.92,33-32.77,33h-108.68c-21.69,0-32.53-11-32.53-33v-86.07h53.99v73.61h65.99v-70.84l-108.22-102.45c-7.85-7.54-11.77-17.15-11.77-28.84v-80.3c0-22.15,10.84-33.23,32.53-33.23h108.68c21.84,0,32.77,10.92,32.77,32.77v80.76h-53.99v-68.07h-65.99v65.3l108.22,101.99c7.85,7.38,11.77,17.15,11.77,29.3v86.07Z"/>
    <path class="cls-6" d="M473.38,428.14c0,22-10.92,33-32.77,33h-108.68c-21.69,0-32.53-11-32.53-33v-86.07h53.99v73.61h65.99v-70.84l-108.22-102.45c-7.85-7.54-11.77-17.15-11.77-28.84v-80.3c0-22.15,10.84-33.23,32.53-33.23h108.68c21.84,0,32.77,10.92,32.77,32.77v80.76h-53.99v-68.07h-65.99v65.3l108.22,101.99c7.85,7.38,11.77,17.15,11.77,29.3v86.07Z"/>
    <path class="cls-6" d="M473.13,428.26c0,22-10.92,33-32.77,33h-108.68c-21.69,0-32.53-11-32.53-33v-86.07h53.99v73.61h65.99v-70.84l-108.22-102.45c-7.85-7.54-11.77-17.15-11.77-28.84v-80.3c0-22.15,10.84-33.23,32.53-33.23h108.68c21.84,0,32.77,10.92,32.77,32.77v80.76h-53.99v-68.07h-65.99v65.3l108.22,101.99c7.85,7.38,11.77,17.15,11.77,29.3v86.07Z"/>
    <path class="cls-6" d="M472.88,428.38c0,22-10.92,33-32.77,33h-108.68c-21.69,0-32.53-11-32.53-33v-86.07h53.99v73.61h65.99v-70.84l-108.22-102.45c-7.85-7.54-11.77-17.15-11.77-28.84v-80.3c0-22.15,10.84-33.23,32.53-33.23h108.68c21.84,0,32.77,10.92,32.77,32.77v80.76h-53.99v-68.07h-65.99v65.3l108.22,101.99c7.85,7.38,11.77,17.15,11.77,29.3v86.07Z"/>
    <path class="cls-6" d="M472.64,428.5c0,22-10.92,33-32.77,33h-108.68c-21.69,0-32.53-11-32.53-33v-86.07h53.99v73.61h65.99v-70.84l-108.22-102.45c-7.85-7.54-11.77-17.15-11.77-28.84v-80.3c0-22.15,10.84-33.23,32.53-33.23h108.68c21.84,0,32.77,10.92,32.77,32.77v80.76h-53.99v-68.07h-65.99v65.3l108.22,101.99c7.85,7.38,11.77,17.15,11.77,29.3v86.07Z"/>
    <path class="cls-6" d="M472.39,428.63c0,22-10.92,33-32.77,33h-108.68c-21.69,0-32.53-11-32.53-33v-86.07h53.99v73.61h65.99v-70.84l-108.22-102.45c-7.85-7.54-11.77-17.15-11.77-28.84v-80.3c0-22.15,10.84-33.23,32.53-33.23h108.68c21.84,0,32.77,10.92,32.77,32.77v80.76h-53.99v-68.07h-65.99v65.3l108.22,101.99c7.85,7.38,11.77,17.15,11.77,29.3v86.07Z"/>
    <path class="cls-6" d="M472.15,428.75c0,22-10.92,33-32.77,33h-108.68c-21.69,0-32.53-11-32.53-33v-86.07h53.99v73.61h65.99v-70.84l-108.22-102.45c-7.85-7.54-11.77-17.15-11.77-28.84v-80.3c0-22.15,10.84-33.23,32.53-33.23h108.68c21.84,0,32.77,10.92,32.77,32.77v80.76h-53.99v-68.07h-65.99v65.3l108.22,101.99c7.85,7.38,11.77,17.15,11.77,29.3v86.07Z"/>
    <path class="cls-6" d="M471.9,428.87c0,22-10.92,33-32.77,33h-108.68c-21.69,0-32.53-11-32.53-33v-86.07h53.99v73.61h65.99v-70.84l-108.22-102.45c-7.85-7.54-11.77-17.15-11.77-28.84v-80.3c0-22.15,10.84-33.23,32.53-33.23h108.68c21.84,0,32.77,10.92,32.77,32.77v80.76h-53.99v-68.07h-65.99v65.3l108.22,101.99c7.85,7.38,11.77,17.15,11.77,29.3v86.07Z"/>
    <path class="cls-6" d="M471.66,429c0,22-10.92,33-32.77,33h-108.68c-21.69,0-32.53-11-32.53-33v-86.07h53.99v73.61h65.99v-70.84l-108.22-102.45c-7.85-7.54-11.77-17.15-11.77-28.84v-80.3c0-22.15,10.84-33.23,32.53-33.23h108.68c21.84,0,32.77,10.92,32.77,32.77v80.76h-53.99v-68.07h-65.99v65.3l108.22,101.99c7.85,7.38,11.77,17.15,11.77,29.3v86.07Z"/>
    <path class="cls-6" d="M471.41,429.12c0,22-10.92,33-32.77,33h-108.68c-21.69,0-32.53-11-32.53-33v-86.07h53.99v73.61h65.99v-70.84l-108.22-102.45c-7.85-7.54-11.77-17.15-11.77-28.84v-80.3c0-22.15,10.84-33.23,32.53-33.23h108.68c21.84,0,32.77,10.92,32.77,32.77v80.76h-53.99v-68.07h-65.99v65.3l108.22,101.99c7.85,7.38,11.77,17.15,11.77,29.3v86.07Z"/>
    <path class="cls-6" d="M471.16,429.24c0,22-10.92,33-32.77,33h-108.68c-21.69,0-32.53-11-32.53-33v-86.07h53.99v73.61h65.99v-70.84l-108.22-102.45c-7.85-7.54-11.77-17.15-11.77-28.84v-80.3c0-22.15,10.84-33.23,32.53-33.23h108.68c21.84,0,32.77,10.92,32.77,32.77v80.76h-53.99v-68.07h-65.99v65.3l108.22,101.99c7.85,7.38,11.77,17.15,11.77,29.3v86.07Z"/>
    <path class="cls-6" d="M470.92,429.36c0,22-10.92,33-32.77,33h-108.68c-21.69,0-32.53-11-32.53-33v-86.07h53.99v73.61h65.99v-70.84l-108.22-102.45c-7.85-7.54-11.77-17.15-11.77-28.84v-80.3c0-22.15,10.84-33.23,32.53-33.23h108.68c21.84,0,32.77,10.92,32.77,32.77v80.76h-53.99v-68.07h-65.99v65.3l108.22,101.99c7.85,7.38,11.77,17.15,11.77,29.3v86.07Z"/>
    <path class="cls-6" d="M470.67,429.49c0,22-10.92,33-32.77,33h-108.68c-21.69,0-32.53-11-32.53-33v-86.07h53.99v73.61h65.99v-70.84l-108.22-102.45c-7.85-7.54-11.77-17.15-11.77-28.84v-80.3c0-22.15,10.84-33.23,32.53-33.23h108.68c21.84,0,32.77,10.92,32.77,32.77v80.76h-53.99v-68.07h-65.99v65.3l108.22,101.99c7.85,7.38,11.77,17.15,11.77,29.3v86.07Z"/>
    <path class="cls-6" d="M470.43,429.61c0,22-10.92,33-32.77,33h-108.68c-21.69,0-32.53-11-32.53-33v-86.07h53.99v73.61h65.99v-70.84l-108.22-102.45c-7.85-7.54-11.77-17.15-11.77-28.84v-80.3c0-22.15,10.84-33.23,32.53-33.23h108.68c21.84,0,32.77,10.92,32.77,32.77v80.76h-53.99v-68.07h-65.99v65.3l108.22,101.99c7.85,7.38,11.77,17.15,11.77,29.3v86.07Z"/>
    <path class="cls-6" d="M470.18,429.73c0,22-10.92,33-32.77,33h-108.68c-21.69,0-32.53-11-32.53-33v-86.07h53.99v73.61h65.99v-70.84l-108.22-102.45c-7.85-7.54-11.77-17.15-11.77-28.84v-80.3c0-22.15,10.84-33.23,32.53-33.23h108.68c21.84,0,32.77,10.92,32.77,32.77v80.76h-53.99v-68.07h-65.99v65.3l108.22,101.99c7.85,7.38,11.77,17.15,11.77,29.3v86.07Z"/>
    <path class="cls-6" d="M469.94,429.86c0,22-10.92,33-32.77,33h-108.68c-21.69,0-32.53-11-32.53-33v-86.07h53.99v73.61h65.99v-70.84l-108.22-102.45c-7.85-7.54-11.77-17.15-11.77-28.84v-80.3c0-22.15,10.84-33.23,32.53-33.23h108.68c21.84,0,32.77,10.92,32.77,32.77v80.76h-53.99v-68.07h-65.99v65.3l108.22,101.99c7.85,7.38,11.77,17.15,11.77,29.3v86.07Z"/>
    <path class="cls-6" d="M469.69,429.98c0,22-10.92,33-32.77,33h-108.68c-21.69,0-32.53-11-32.53-33v-86.07h53.99v73.61h65.99v-70.84l-108.22-102.45c-7.85-7.54-11.77-17.15-11.77-28.84v-80.3c0-22.15,10.84-33.23,32.53-33.23h108.68c21.84,0,32.77,10.92,32.77,32.77v80.76h-53.99v-68.07h-65.99v65.3l108.22,101.99c7.85,7.38,11.77,17.15,11.77,29.3v86.07Z"/>
    <path class="cls-6" d="M469.44,430.1c0,22-10.92,33-32.77,33h-108.68c-21.69,0-32.53-11-32.53-33v-86.07h53.99v73.61h65.99v-70.84l-108.22-102.45c-7.85-7.54-11.77-17.15-11.77-28.84v-80.3c0-22.15,10.84-33.23,32.53-33.23h108.68c21.84,0,32.77,10.92,32.77,32.77v80.76h-53.99v-68.07h-65.99v65.3l108.22,101.99c7.85,7.38,11.77,17.15,11.77,29.3v86.07Z"/>
    <path class="cls-6" d="M469.2,430.22c0,22-10.92,33-32.77,33h-108.68c-21.69,0-32.53-11-32.53-33v-86.07h53.99v73.61h65.99v-70.84l-108.22-102.45c-7.85-7.54-11.77-17.15-11.77-28.84v-80.3c0-22.15,10.84-33.23,32.53-33.23h108.68c21.84,0,32.77,10.92,32.77,32.77v80.76h-53.99v-68.07h-65.99v65.3l108.22,101.99c7.85,7.38,11.77,17.15,11.77,29.3v86.07Z"/>
    <path class="cls-6" d="M468.95,430.35c0,22-10.92,33-32.77,33h-108.68c-21.69,0-32.53-11-32.53-33v-86.07h53.99v73.61h65.99v-70.84l-108.22-102.45c-7.85-7.54-11.77-17.15-11.77-28.84v-80.3c0-22.15,10.84-33.23,32.53-33.23h108.68c21.84,0,32.77,10.92,32.77,32.77v80.76h-53.99v-68.07h-65.99v65.3l108.22,101.99c7.85,7.38,11.77,17.15,11.77,29.3v86.07Z"/>
    <path class="cls-6" d="M468.71,430.47c0,22-10.92,33-32.77,33h-108.68c-21.69,0-32.53-11-32.53-33v-86.07h53.99v73.61h65.99v-70.84l-108.22-102.45c-7.85-7.54-11.77-17.15-11.77-28.84v-80.3c0-22.15,10.84-33.23,32.53-33.23h108.68c21.84,0,32.77,10.92,32.77,32.77v80.76h-53.99v-68.07h-65.99v65.3l108.22,101.99c7.85,7.38,11.77,17.15,11.77,29.3v86.07Z"/>
    <path class="cls-6" d="M468.46,430.59c0,22-10.92,33-32.77,33h-108.68c-21.69,0-32.53-11-32.53-33v-86.07h53.99v73.61h65.99v-70.84l-108.22-102.45c-7.85-7.54-11.77-17.15-11.77-28.84v-80.3c0-22.15,10.84-33.23,32.53-33.23h108.68c21.84,0,32.77,10.92,32.77,32.77v80.76h-53.99v-68.07h-65.99v65.3l108.22,101.99c7.85,7.38,11.77,17.15,11.77,29.3v86.07Z"/>
    <path class="cls-6" d="M468.21,430.72c0,22-10.92,33-32.77,33h-108.68c-21.69,0-32.53-11-32.53-33v-86.07h53.99v73.61h65.99v-70.84l-108.22-102.45c-7.85-7.54-11.77-17.15-11.77-28.84v-80.3c0-22.15,10.84-33.23,32.53-33.23h108.68c21.84,0,32.77,10.92,32.77,32.77v80.76h-53.99v-68.07h-65.99v65.3l108.22,101.99c7.85,7.38,11.77,17.15,11.77,29.3v86.07Z"/>
    <path class="cls-6" d="M467.97,430.84c0,22-10.92,33-32.77,33h-108.68c-21.69,0-32.53-11-32.53-33v-86.07h53.99v73.61h65.99v-70.84l-108.22-102.45c-7.85-7.54-11.77-17.15-11.77-28.84v-80.3c0-22.15,10.84-33.23,32.53-33.23h108.68c21.84,0,32.77,10.92,32.77,32.77v80.76h-53.99v-68.07h-65.99v65.3l108.22,101.99c7.85,7.38,11.77,17.15,11.77,29.3v86.07Z"/>
    <path class="cls-6" d="M467.72,430.96c0,22-10.92,33-32.77,33h-108.68c-21.69,0-32.53-11-32.53-33v-86.07h53.99v73.61h65.99v-70.84l-108.22-102.45c-7.85-7.54-11.77-17.15-11.77-28.84v-80.3c0-22.15,10.84-33.23,32.53-33.23h108.68c21.84,0,32.77,10.92,32.77,32.77v80.76h-53.99v-68.07h-65.99v65.3l108.22,101.99c7.85,7.38,11.77,17.15,11.77,29.3v86.07Z"/>
    <path class="cls-6" d="M467.48,431.08c0,22-10.92,33-32.77,33h-108.68c-21.69,0-32.53-11-32.53-33v-86.07h53.99v73.61h65.99v-70.84l-108.22-102.45c-7.85-7.54-11.77-17.15-11.77-28.84v-80.3c0-22.15,10.84-33.23,32.53-33.23h108.68c21.84,0,32.77,10.92,32.77,32.77v80.76h-53.99v-68.07h-65.99v65.3l108.22,101.99c7.85,7.38,11.77,17.15,11.77,29.3v86.07Z"/>
    <path class="cls-6" d="M467.23,431.21c0,22-10.92,33-32.77,33h-108.68c-21.69,0-32.53-11-32.53-33v-86.07h53.99v73.61h65.99v-70.84l-108.22-102.45c-7.85-7.54-11.77-17.15-11.77-28.84v-80.3c0-22.15,10.84-33.23,32.53-33.23h108.68c21.84,0,32.77,10.92,32.77,32.77v80.76h-53.99v-68.07h-65.99v65.3l108.22,101.99c7.85,7.38,11.77,17.15,11.77,29.3v86.07Z"/>
    <path class="cls-6" d="M466.99,431.33c0,22-10.92,33-32.77,33h-108.68c-21.69,0-32.53-11-32.53-33v-86.07h53.99v73.61h65.99v-70.84l-108.22-102.45c-7.85-7.54-11.77-17.15-11.77-28.84v-80.3c0-22.15,10.84-33.23,32.53-33.23h108.68c21.84,0,32.77,10.92,32.77,32.77v80.76h-53.99v-68.07h-65.99v65.3l108.22,101.99c7.85,7.38,11.77,17.15,11.77,29.3v86.07Z"/>
    <path class="cls-6" d="M466.74,431.45c0,22-10.92,33-32.77,33h-108.68c-21.69,0-32.53-11-32.53-33v-86.07h53.99v73.61h65.99v-70.84l-108.22-102.45c-7.85-7.54-11.77-17.15-11.77-28.84v-80.3c0-22.15,10.84-33.23,32.53-33.23h108.68c21.84,0,32.77,10.92,32.77,32.77v80.76h-53.99v-68.07h-65.99v65.3l108.22,101.99c7.85,7.38,11.77,17.15,11.77,29.3v86.07Z"/>
    <path class="cls-6" d="M466.49,431.58c0,22-10.92,33-32.77,33h-108.68c-21.69,0-32.53-11-32.53-33v-86.07h53.99v73.61h65.99v-70.84l-108.22-102.45c-7.85-7.54-11.77-17.15-11.77-28.84v-80.3c0-22.15,10.84-33.23,32.53-33.23h108.68c21.84,0,32.77,10.92,32.77,32.77v80.76h-53.99v-68.07h-65.99v65.3l108.22,101.99c7.85,7.38,11.77,17.15,11.77,29.3v86.07Z"/>
    <path class="cls-6" d="M466.25,431.7c0,22-10.92,33-32.77,33h-108.68c-21.69,0-32.53-11-32.53-33v-86.07h53.99v73.61h65.99v-70.84l-108.22-102.45c-7.85-7.54-11.77-17.15-11.77-28.84v-80.3c0-22.15,10.84-33.23,32.53-33.23h108.68c21.84,0,32.77,10.92,32.77,32.77v80.76h-53.99v-68.07h-65.99v65.3l108.22,101.99c7.85,7.38,11.77,17.15,11.77,29.3v86.07Z"/>
    <path class="cls-6" d="M466,431.82c0,22-10.92,33-32.77,33h-108.68c-21.69,0-32.53-11-32.53-33v-86.07h53.99v73.61h65.99v-70.84l-108.22-102.45c-7.85-7.54-11.77-17.15-11.77-28.84v-80.3c0-22.15,10.84-33.23,32.53-33.23h108.68c21.84,0,32.77,10.92,32.77,32.77v80.76h-53.99v-68.07h-65.99v65.3l108.22,101.99c7.85,7.38,11.77,17.15,11.77,29.3v86.07Z"/>
    <path class="cls-6" d="M465.76,431.95c0,22-10.92,33-32.77,33h-108.68c-21.69,0-32.53-11-32.53-33v-86.07h53.99v73.61h65.99v-70.84l-108.22-102.45c-7.85-7.54-11.77-17.15-11.77-28.84v-80.3c0-22.15,10.84-33.23,32.53-33.23h108.68c21.84,0,32.77,10.92,32.77,32.77v80.76h-53.99v-68.07h-65.99v65.3l108.22,101.99c7.85,7.38,11.77,17.15,11.77,29.3v86.07Z"/>
    <path class="cls-6" d="M465.51,432.07c0,22-10.92,33-32.77,33h-108.68c-21.69,0-32.53-11-32.53-33v-86.07h53.99v73.61h65.99v-70.84l-108.22-102.45c-7.85-7.54-11.77-17.15-11.77-28.84v-80.3c0-22.15,10.84-33.23,32.53-33.23h108.68c21.84,0,32.77,10.92,32.77,32.77v80.76h-53.99v-68.07h-65.99v65.3l108.22,101.99c7.85,7.38,11.77,17.15,11.77,29.3v86.07Z"/>
    <path class="cls-6" d="M465.27,432.19c0,22-10.92,33-32.77,33h-108.68c-21.69,0-32.53-11-32.53-33v-86.07h53.99v73.61h65.99v-70.84l-108.22-102.45c-7.85-7.54-11.77-17.15-11.77-28.84v-80.3c0-22.15,10.84-33.23,32.53-33.23h108.68c21.84,0,32.77,10.92,32.77,32.77v80.76h-53.99v-68.07h-65.99v65.3l108.22,101.99c7.85,7.38,11.77,17.15,11.77,29.3v86.07Z"/>
    <path class="cls-6" d="M465.02,432.31c0,22-10.92,33-32.77,33h-108.68c-21.69,0-32.53-11-32.53-33v-86.07h53.99v73.61h65.99v-70.84l-108.22-102.45c-7.85-7.54-11.77-17.15-11.77-28.84v-80.3c0-22.15,10.84-33.23,32.53-33.23h108.68c21.84,0,32.77,10.92,32.77,32.77v80.76h-53.99v-68.07h-65.99v65.3l108.22,101.99c7.85,7.38,11.77,17.15,11.77,29.3v86.07Z"/>
    <path class="cls-6" d="M464.77,432.44c0,22-10.92,33-32.77,33h-108.68c-21.69,0-32.53-11-32.53-33v-86.07h53.99v73.61h65.99v-70.84l-108.22-102.45c-7.85-7.54-11.77-17.15-11.77-28.84v-80.3c0-22.15,10.84-33.23,32.53-33.23h108.68c21.84,0,32.77,10.92,32.77,32.77v80.76h-53.99v-68.07h-65.99v65.3l108.22,101.99c7.85,7.38,11.77,17.15,11.77,29.3v86.07Z"/>
    <path class="cls-6" d="M464.53,432.56c0,22-10.92,33-32.77,33h-108.68c-21.69,0-32.53-11-32.53-33v-86.07h53.99v73.61h65.99v-70.84l-108.22-102.45c-7.85-7.54-11.77-17.15-11.77-28.84v-80.3c0-22.15,10.84-33.23,32.53-33.23h108.68c21.84,0,32.77,10.92,32.77,32.77v80.76h-53.99v-68.07h-65.99v65.3l108.22,101.99c7.85,7.38,11.77,17.15,11.77,29.3v86.07Z"/>
    <path class="cls-6" d="M464.28,432.68c0,22-10.92,33-32.77,33h-108.68c-21.69,0-32.53-11-32.53-33v-86.07h53.99v73.61h65.99v-70.84l-108.22-102.45c-7.85-7.54-11.77-17.15-11.77-28.84v-80.3c0-22.15,10.84-33.23,32.53-33.23h108.68c21.84,0,32.77,10.92,32.77,32.77v80.76h-53.99v-68.07h-65.99v65.3l108.22,101.99c7.85,7.38,11.77,17.15,11.77,29.3v86.07Z"/>
    <path class="cls-6" d="M464.04,432.81c0,22-10.92,33-32.77,33h-108.68c-21.69,0-32.53-11-32.53-33v-86.07h53.99v73.61h65.99v-70.84l-108.22-102.45c-7.85-7.54-11.77-17.15-11.77-28.84v-80.3c0-22.15,10.84-33.23,32.53-33.23h108.68c21.84,0,32.77,10.92,32.77,32.77v80.76h-53.99v-68.07h-65.99v65.3l108.22,101.99c7.85,7.38,11.77,17.15,11.77,29.3v86.07Z"/>
    <path class="cls-6" d="M463.79,432.93c0,22-10.92,33-32.77,33h-108.68c-21.69,0-32.53-11-32.53-33v-86.07h53.99v73.61h65.99v-70.84l-108.22-102.45c-7.85-7.54-11.77-17.15-11.77-28.84v-80.3c0-22.15,10.84-33.23,32.53-33.23h108.68c21.84,0,32.77,10.92,32.77,32.77v80.76h-53.99v-68.07h-65.99v65.3l108.22,101.99c7.85,7.38,11.77,17.15,11.77,29.3v86.07Z"/>
    <path class="cls-6" d="M463.55,433.05c0,22-10.92,33-32.77,33h-108.68c-21.69,0-32.53-11-32.53-33v-86.07h53.99v73.61h65.99v-70.84l-108.22-102.45c-7.85-7.54-11.77-17.15-11.77-28.84v-80.3c0-22.15,10.84-33.23,32.53-33.23h108.68c21.84,0,32.77,10.92,32.77,32.77v80.76h-53.99v-68.07h-65.99v65.3l108.22,101.99c7.85,7.38,11.77,17.15,11.77,29.3v86.07Z"/>
    <path class="cls-6" d="M463.3,433.17c0,22-10.92,33-32.77,33h-108.68c-21.69,0-32.53-11-32.53-33v-86.07h53.99v73.61h65.99v-70.84l-108.22-102.45c-7.85-7.54-11.77-17.15-11.77-28.84v-80.3c0-22.15,10.84-33.23,32.53-33.23h108.68c21.84,0,32.77,10.92,32.77,32.77v80.76h-53.99v-68.07h-65.99v65.3l108.22,101.99c7.85,7.38,11.77,17.15,11.77,29.3v86.07Z"/>
    <path class="cls-6" d="M463.05,433.3c0,22-10.92,33-32.77,33h-108.68c-21.69,0-32.53-11-32.53-33v-86.07h53.99v73.61h65.99v-70.84l-108.22-102.45c-7.85-7.54-11.77-17.15-11.77-28.84v-80.3c0-22.15,10.84-33.23,32.53-33.23h108.68c21.84,0,32.77,10.92,32.77,32.77v80.76h-53.99v-68.07h-65.99v65.3l108.22,101.99c7.85,7.38,11.77,17.15,11.77,29.3v86.07Z"/>
    <path class="cls-6" d="M462.81,433.42c0,22-10.92,33-32.77,33h-108.68c-21.69,0-32.53-11-32.53-33v-86.07h53.99v73.61h65.99v-70.84l-108.22-102.45c-7.85-7.54-11.77-17.15-11.77-28.84v-80.3c0-22.15,10.84-33.23,32.53-33.23h108.68c21.84,0,32.77,10.92,32.77,32.77v80.76h-53.99v-68.07h-65.99v65.3l108.22,101.99c7.85,7.38,11.77,17.15,11.77,29.3v86.07Z"/>
    <path class="cls-6" d="M462.56,433.54c0,22-10.92,33-32.77,33h-108.68c-21.69,0-32.53-11-32.53-33v-86.07h53.99v73.61h65.99v-70.84l-108.22-102.45c-7.85-7.54-11.77-17.15-11.77-28.84v-80.3c0-22.15,10.84-33.23,32.53-33.23h108.68c21.84,0,32.77,10.92,32.77,32.77v80.76h-53.99v-68.07h-65.99v65.3l108.22,101.99c7.85,7.38,11.77,17.15,11.77,29.3v86.07Z"/>
    <path class="cls-6" d="M462.32,433.67c0,22-10.92,33-32.77,33h-108.68c-21.69,0-32.53-11-32.53-33v-86.07h53.99v73.61h65.99v-70.84l-108.22-102.45c-7.85-7.54-11.77-17.15-11.77-28.84v-80.3c0-22.15,10.84-33.23,32.53-33.23h108.68c21.84,0,32.77,10.92,32.77,32.77v80.76h-53.99v-68.07h-65.99v65.3l108.22,101.99c7.85,7.38,11.77,17.15,11.77,29.3v86.07Z"/>
    <path class="cls-6" d="M462.07,433.79c0,22-10.92,33-32.77,33h-108.68c-21.69,0-32.53-11-32.53-33v-86.07h53.99v73.61h65.99v-70.84l-108.22-102.45c-7.85-7.54-11.77-17.15-11.77-28.84v-80.3c0-22.15,10.84-33.23,32.53-33.23h108.68c21.84,0,32.77,10.92,32.77,32.77v80.76h-53.99v-68.07h-65.99v65.3l108.22,101.99c7.85,7.38,11.77,17.15,11.77,29.3v86.07Z"/>
    <path class="cls-6" d="M461.82,433.91c0,22-10.92,33-32.77,33h-108.68c-21.69,0-32.53-11-32.53-33v-86.07h53.99v73.61h65.99v-70.84l-108.22-102.45c-7.85-7.54-11.77-17.15-11.77-28.84v-80.3c0-22.15,10.84-33.23,32.53-33.23h108.68c21.84,0,32.77,10.92,32.77,32.77v80.76h-53.99v-68.07h-65.99v65.3l108.22,101.99c7.85,7.38,11.77,17.15,11.77,29.3v86.07Z"/>
    <path class="cls-6" d="M461.58,434.03c0,22-10.92,33-32.77,33h-108.68c-21.69,0-32.53-11-32.53-33v-86.07h53.99v73.61h65.99v-70.84l-108.22-102.45c-7.85-7.54-11.77-17.15-11.77-28.84v-80.3c0-22.15,10.84-33.23,32.53-33.23h108.68c21.84,0,32.77,10.92,32.77,32.77v80.76h-53.99v-68.07h-65.99v65.3l108.22,101.99c7.85,7.38,11.77,17.15,11.77,29.3v86.07Z"/>
    <path class="cls-6" d="M461.33,434.16c0,22-10.92,33-32.77,33h-108.68c-21.69,0-32.53-11-32.53-33v-86.07h53.99v73.61h65.99v-70.84l-108.22-102.45c-7.85-7.54-11.77-17.15-11.77-28.84v-80.3c0-22.15,10.84-33.23,32.53-33.23h108.68c21.84,0,32.77,10.92,32.77,32.77v80.76h-53.99v-68.07h-65.99v65.3l108.22,101.99c7.85,7.38,11.77,17.15,11.77,29.3v86.07Z"/>
    <path class="cls-6" d="M461.09,434.28c0,22-10.92,33-32.77,33h-108.68c-21.69,0-32.53-11-32.53-33v-86.07h53.99v73.61h65.99v-70.84l-108.22-102.45c-7.85-7.54-11.77-17.15-11.77-28.84v-80.3c0-22.15,10.84-33.23,32.53-33.23h108.68c21.84,0,32.77,10.92,32.77,32.77v80.76h-53.99v-68.07h-65.99v65.3l108.22,101.99c7.85,7.38,11.77,17.15,11.77,29.3v86.07Z"/>
    <path class="cls-6" d="M460.84,434.4c0,22-10.92,33-32.77,33h-108.68c-21.69,0-32.53-11-32.53-33v-86.07h53.99v73.61h65.99v-70.84l-108.22-102.45c-7.85-7.54-11.77-17.15-11.77-28.84v-80.3c0-22.15,10.84-33.23,32.53-33.23h108.68c21.84,0,32.77,10.92,32.77,32.77v80.76h-53.99v-68.07h-65.99v65.3l108.22,101.99c7.85,7.38,11.77,17.15,11.77,29.3v86.07Z"/>
    <path class="cls-6" d="M460.6,434.53c0,22-10.92,33-32.77,33h-108.68c-21.69,0-32.53-11-32.53-33v-86.07h53.99v73.61h65.99v-70.84l-108.22-102.45c-7.85-7.54-11.77-17.15-11.77-28.84v-80.3c0-22.15,10.84-33.23,32.53-33.23h108.68c21.84,0,32.77,10.92,32.77,32.77v80.76h-53.99v-68.07h-65.99v65.3l108.22,101.99c7.85,7.38,11.77,17.15,11.77,29.3v86.07Z"/>
    <path class="cls-6" d="M460.35,434.65c0,22-10.92,33-32.77,33h-108.68c-21.69,0-32.53-11-32.53-33v-86.07h53.99v73.61h65.99v-70.84l-108.22-102.45c-7.85-7.54-11.77-17.15-11.77-28.84v-80.3c0-22.15,10.84-33.23,32.53-33.23h108.68c21.84,0,32.77,10.92,32.77,32.77v80.76h-53.99v-68.07h-65.99v65.3l108.22,101.99c7.85,7.38,11.77,17.15,11.77,29.3v86.07Z"/>
    <path class="cls-6" d="M460.1,434.77c0,22-10.92,33-32.77,33h-108.68c-21.69,0-32.53-11-32.53-33v-86.07h53.99v73.61h65.99v-70.84l-108.22-102.45c-7.85-7.54-11.77-17.15-11.77-28.84v-80.3c0-22.15,10.84-33.23,32.53-33.23h108.68c21.84,0,32.77,10.92,32.77,32.77v80.76h-53.99v-68.07h-65.99v65.3l108.22,101.99c7.85,7.38,11.77,17.15,11.77,29.3v86.07Z"/>
    <path class="cls-6" d="M459.86,434.89c0,22-10.92,33-32.77,33h-108.68c-21.69,0-32.53-11-32.53-33v-86.07h53.99v73.61h65.99v-70.84l-108.22-102.45c-7.85-7.54-11.77-17.15-11.77-28.84v-80.3c0-22.15,10.84-33.23,32.53-33.23h108.68c21.84,0,32.77,10.92,32.77,32.77v80.76h-53.99v-68.07h-65.99v65.3l108.22,101.99c7.85,7.38,11.77,17.15,11.77,29.3v86.07Z"/>
    <path class="cls-6" d="M459.61,435.02c0,22-10.92,33-32.77,33h-108.68c-21.69,0-32.53-11-32.53-33v-86.07h53.99v73.61h65.99v-70.84l-108.22-102.45c-7.85-7.54-11.77-17.15-11.77-28.84v-80.3c0-22.15,10.84-33.23,32.53-33.23h108.68c21.84,0,32.77,10.92,32.77,32.77v80.76h-53.99v-68.07h-65.99v65.3l108.22,101.99c7.85,7.38,11.77,17.15,11.77,29.3v86.07Z"/>
    <path class="cls-6" d="M459.37,435.14c0,22-10.92,33-32.77,33h-108.68c-21.69,0-32.53-11-32.53-33v-86.07h53.99v73.61h65.99v-70.84l-108.22-102.45c-7.85-7.54-11.77-17.15-11.77-28.84v-80.3c0-22.15,10.84-33.23,32.53-33.23h108.68c21.84,0,32.77,10.92,32.77,32.77v80.76h-53.99v-68.07h-65.99v65.3l108.22,101.99c7.85,7.38,11.77,17.15,11.77,29.3v86.07Z"/>
    <path class="cls-6" d="M459.12,435.26c0,22-10.92,33-32.77,33h-108.68c-21.69,0-32.53-11-32.53-33v-86.07h53.99v73.61h65.99v-70.84l-108.22-102.45c-7.85-7.54-11.77-17.15-11.77-28.84v-80.3c0-22.15,10.84-33.23,32.53-33.23h108.68c21.84,0,32.77,10.92,32.77,32.77v80.76h-53.99v-68.07h-65.99v65.3l108.22,101.99c7.85,7.38,11.77,17.15,11.77,29.3v86.07Z"/>
    <path class="cls-6" d="M458.88,435.39c0,22-10.92,33-32.77,33h-108.68c-21.69,0-32.53-11-32.53-33v-86.07h53.99v73.61h65.99v-70.84l-108.22-102.45c-7.85-7.54-11.77-17.15-11.77-28.84v-80.3c0-22.15,10.84-33.23,32.53-33.23h108.68c21.84,0,32.77,10.92,32.77,32.77v80.76h-53.99v-68.07h-65.99v65.3l108.22,101.99c7.85,7.38,11.77,17.15,11.77,29.3v86.07Z"/>
    <path class="cls-6" d="M458.63,435.51c0,22-10.92,33-32.77,33h-108.68c-21.69,0-32.53-11-32.53-33v-86.07h53.99v73.61h65.99v-70.84l-108.22-102.45c-7.85-7.54-11.77-17.15-11.77-28.84v-80.3c0-22.15,10.84-33.23,32.53-33.23h108.68c21.84,0,32.77,10.92,32.77,32.77v80.76h-53.99v-68.07h-65.99v65.3l108.22,101.99c7.85,7.38,11.77,17.15,11.77,29.3v86.07Z"/>
    <path class="cls-6" d="M458.38,435.63c0,22-10.92,33-32.77,33h-108.68c-21.69,0-32.53-11-32.53-33v-86.07h53.99v73.61h65.99v-70.84l-108.22-102.45c-7.85-7.54-11.77-17.15-11.77-28.84v-80.3c0-22.15,10.84-33.23,32.53-33.23h108.68c21.84,0,32.77,10.92,32.77,32.77v80.76h-53.99v-68.07h-65.99v65.3l108.22,101.99c7.85,7.38,11.77,17.15,11.77,29.3v86.07Z"/>
    <path class="cls-6" d="M458.14,435.75c0,22-10.92,33-32.77,33h-108.68c-21.69,0-32.53-11-32.53-33v-86.07h53.99v73.61h65.99v-70.84l-108.22-102.45c-7.85-7.54-11.77-17.15-11.77-28.84v-80.3c0-22.15,10.84-33.23,32.53-33.23h108.68c21.84,0,32.77,10.92,32.77,32.77v80.76h-53.99v-68.07h-65.99v65.3l108.22,101.99c7.85,7.38,11.77,17.15,11.77,29.3v86.07Z"/>
    <path class="cls-6" d="M457.89,435.88c0,22-10.92,33-32.77,33h-108.68c-21.69,0-32.53-11-32.53-33v-86.07h53.99v73.61h65.99v-70.84l-108.22-102.45c-7.85-7.54-11.77-17.15-11.77-28.84v-80.3c0-22.15,10.84-33.23,32.53-33.23h108.68c21.84,0,32.77,10.92,32.77,32.77v80.76h-53.99v-68.07h-65.99v65.3l108.22,101.99c7.85,7.38,11.77,17.15,11.77,29.3v86.07Z"/>
    <path class="cls-6" d="M457.65,436c0,22-10.92,33-32.77,33h-108.68c-21.69,0-32.53-11-32.53-33v-86.07h53.99v73.61h65.99v-70.84l-108.22-102.45c-7.85-7.54-11.77-17.15-11.77-28.84v-80.3c0-22.15,10.84-33.23,32.53-33.23h108.68c21.84,0,32.77,10.92,32.77,32.77v80.76h-53.99v-68.07h-65.99v65.3l108.22,101.99c7.85,7.38,11.77,17.15,11.77,29.3v86.07Z"/>
    <text class="cls-5" transform="translate(262.65 469.12)"><tspan x="0" y="0">S</tspan></text>
  </g>
  <g>
    <g>
      <rect id="Back-2" data-name="Back" class="cls-6" x="234.68" y="477.38" width="523.25" height="40.53" transform="translate(-192.7 636.35) rotate(-56.46)"/>
      <rect class="cls-6" x="234.56" y="477.38" width="523.25" height="40.53" transform="translate(-192.75 636.24) rotate(-56.46)"/>
      <rect class="cls-6" x="234.43" y="477.38" width="523.25" height="40.53" transform="translate(-192.81 636.14) rotate(-56.46)"/>
      <rect class="cls-6" x="234.31" y="477.38" width="523.25" height="40.53" transform="translate(-192.86 636.04) rotate(-56.46)"/>
      <rect class="cls-6" x="234.19" y="477.38" width="523.25" height="40.53" transform="translate(-192.92 635.94) rotate(-56.46)"/>
      <rect class="cls-6" x="234.07" y="477.38" width="523.25" height="40.53" transform="translate(-192.97 635.83) rotate(-56.46)"/>
      <rect class="cls-6" x="233.94" y="477.38" width="523.25" height="40.53" transform="translate(-193.03 635.73) rotate(-56.46)"/>
      <rect class="cls-6" x="233.82" y="477.38" width="523.25" height="40.53" transform="translate(-193.08 635.63) rotate(-56.46)"/>
      <rect class="cls-6" x="233.7" y="477.38" width="523.25" height="40.53" transform="translate(-193.14 635.53) rotate(-56.46)"/>
      <rect class="cls-6" x="233.57" y="477.38" width="523.25" height="40.53" transform="translate(-193.19 635.42) rotate(-56.46)"/>
      <rect class="cls-6" x="233.45" y="477.38" width="523.25" height="40.53" transform="translate(-193.25 635.32) rotate(-56.46)"/>
      <rect class="cls-6" x="233.33" y="477.38" width="523.25" height="40.53" transform="translate(-193.3 635.22) rotate(-56.46)"/>
      <rect class="cls-6" x="233.21" y="477.38" width="523.25" height="40.53" transform="translate(-193.36 635.12) rotate(-56.46)"/>
      <rect class="cls-6" x="233.08" y="477.38" width="523.25" height="40.53" transform="translate(-193.41 635.01) rotate(-56.46)"/>
      <rect class="cls-6" x="232.96" y="477.38" width="523.25" height="40.53" transform="translate(-193.47 634.91) rotate(-56.46)"/>
      <rect class="cls-6" x="232.84" y="477.38" width="523.25" height="40.53" transform="translate(-193.52 634.81) rotate(-56.46)"/>
      <rect class="cls-6" x="232.71" y="477.38" width="523.25" height="40.53" transform="translate(-193.58 634.71) rotate(-56.46)"/>
      <rect class="cls-6" x="232.59" y="477.38" width="523.25" height="40.53" transform="translate(-193.63 634.6) rotate(-56.46)"/>
      <rect class="cls-6" x="232.47" y="477.38" width="523.25" height="40.53" transform="translate(-193.69 634.5) rotate(-56.46)"/>
      <rect class="cls-6" x="232.34" y="477.38" width="523.25" height="40.53" transform="translate(-193.74 634.4) rotate(-56.46)"/>
      <rect class="cls-6" x="232.22" y="477.38" width="523.25" height="40.53" transform="translate(-193.8 634.3) rotate(-56.46)"/>
      <rect class="cls-6" x="232.1" y="477.38" width="523.25" height="40.53" transform="translate(-193.85 634.2) rotate(-56.46)"/>
      <rect class="cls-6" x="231.98" y="477.38" width="523.25" height="40.53" transform="translate(-193.91 634.09) rotate(-56.46)"/>
      <rect class="cls-6" x="231.85" y="477.38" width="523.25" height="40.53" transform="translate(-193.96 633.99) rotate(-56.46)"/>
      <rect class="cls-6" x="231.73" y="477.38" width="523.25" height="40.53" transform="translate(-194.02 633.89) rotate(-56.46)"/>
      <rect class="cls-6" x="231.61" y="477.38" width="523.25" height="40.53" transform="translate(-194.07 633.79) rotate(-56.46)"/>
      <rect class="cls-6" x="231.48" y="477.38" width="523.25" height="40.53" transform="translate(-194.13 633.68) rotate(-56.46)"/>
      <rect class="cls-6" x="231.36" y="477.38" width="523.25" height="40.53" transform="translate(-194.18 633.58) rotate(-56.46)"/>
      <rect class="cls-6" x="231.24" y="477.38" width="523.25" height="40.53" transform="translate(-194.24 633.48) rotate(-56.46)"/>
      <rect class="cls-6" x="231.12" y="477.38" width="523.25" height="40.53" transform="translate(-194.29 633.38) rotate(-56.46)"/>
      <rect class="cls-6" x="230.99" y="477.38" width="523.25" height="40.53" transform="translate(-194.35 633.27) rotate(-56.46)"/>
      <rect class="cls-6" x="230.87" y="477.38" width="523.25" height="40.53" transform="translate(-194.4 633.17) rotate(-56.46)"/>
      <rect class="cls-6" x="230.75" y="477.38" width="523.25" height="40.53" transform="translate(-194.46 633.07) rotate(-56.46)"/>
      <rect class="cls-6" x="230.62" y="477.38" width="523.25" height="40.53" transform="translate(-194.51 632.97) rotate(-56.46)"/>
      <rect class="cls-6" x="230.5" y="477.38" width="523.25" height="40.53" transform="translate(-194.57 632.86) rotate(-56.46)"/>
      <rect class="cls-6" x="230.38" y="477.38" width="523.25" height="40.53" transform="translate(-194.62 632.76) rotate(-56.46)"/>
      <rect class="cls-6" x="230.26" y="477.38" width="523.25" height="40.53" transform="translate(-194.68 632.66) rotate(-56.46)"/>
      <rect class="cls-6" x="230.13" y="477.38" width="523.25" height="40.53" transform="translate(-194.73 632.56) rotate(-56.46)"/>
      <rect class="cls-6" x="230.01" y="477.38" width="523.25" height="40.53" transform="translate(-194.79 632.45) rotate(-56.46)"/>
      <rect class="cls-6" x="229.89" y="477.38" width="523.25" height="40.53" transform="translate(-194.84 632.35) rotate(-56.46)"/>
      <rect class="cls-6" x="229.76" y="477.38" width="523.25" height="40.53" transform="translate(-194.9 632.25) rotate(-56.46)"/>
      <rect class="cls-6" x="229.64" y="477.38" width="523.25" height="40.53" transform="translate(-194.95 632.15) rotate(-56.46)"/>
      <rect class="cls-6" x="229.52" y="477.38" width="523.25" height="40.53" transform="translate(-195.01 632.04) rotate(-56.46)"/>
      <rect class="cls-6" x="229.4" y="477.38" width="523.25" height="40.53" transform="translate(-195.06 631.94) rotate(-56.46)"/>
      <rect class="cls-6" x="229.27" y="477.38" width="523.25" height="40.53" transform="translate(-195.12 631.84) rotate(-56.46)"/>
      <rect class="cls-6" x="229.15" y="477.38" width="523.25" height="40.53" transform="translate(-195.17 631.74) rotate(-56.46)"/>
      <rect class="cls-6" x="229.03" y="477.38" width="523.25" height="40.53" transform="translate(-195.23 631.63) rotate(-56.46)"/>
      <rect class="cls-6" x="228.9" y="477.38" width="523.25" height="40.53" transform="translate(-195.28 631.53) rotate(-56.46)"/>
      <rect class="cls-6" x="228.78" y="477.38" width="523.25" height="40.53" transform="translate(-195.34 631.43) rotate(-56.46)"/>
      <rect class="cls-6" x="228.66" y="477.38" width="523.25" height="40.53" transform="translate(-195.39 631.33) rotate(-56.46)"/>
      <rect class="cls-6" x="228.54" y="477.38" width="523.25" height="40.53" transform="translate(-195.45 631.22) rotate(-56.46)"/>
      <rect class="cls-6" x="228.41" y="477.38" width="523.25" height="40.53" transform="translate(-195.5 631.12) rotate(-56.46)"/>
      <rect class="cls-6" x="228.29" y="477.38" width="523.25" height="40.53" transform="translate(-195.56 631.02) rotate(-56.46)"/>
      <rect class="cls-6" x="228.17" y="477.38" width="523.25" height="40.53" transform="translate(-195.61 630.92) rotate(-56.46)"/>
      <rect class="cls-6" x="228.04" y="477.38" width="523.25" height="40.53" transform="translate(-195.67 630.82) rotate(-56.46)"/>
      <rect class="cls-6" x="227.92" y="477.38" width="523.25" height="40.53" transform="translate(-195.72 630.71) rotate(-56.46)"/>
      <rect class="cls-6" x="227.8" y="477.38" width="523.25" height="40.53" transform="translate(-195.78 630.61) rotate(-56.46)"/>
      <rect class="cls-6" x="227.68" y="477.38" width="523.25" height="40.53" transform="translate(-195.83 630.51) rotate(-56.46)"/>
      <rect class="cls-6" x="227.55" y="477.38" width="523.25" height="40.53" transform="translate(-195.89 630.41) rotate(-56.46)"/>
      <rect class="cls-6" x="227.43" y="477.38" width="523.25" height="40.53" transform="translate(-195.94 630.3) rotate(-56.46)"/>
      <rect class="cls-6" x="227.31" y="477.38" width="523.25" height="40.53" transform="translate(-196 630.2) rotate(-56.46)"/>
      <rect class="cls-6" x="227.18" y="477.38" width="523.25" height="40.53" transform="translate(-196.05 630.1) rotate(-56.46)"/>
      <rect class="cls-6" x="227.06" y="477.38" width="523.25" height="40.53" transform="translate(-196.11 630) rotate(-56.46)"/>
      <rect class="cls-6" x="226.94" y="477.38" width="523.25" height="40.53" transform="translate(-196.16 629.89) rotate(-56.46)"/>
      <rect class="cls-6" x="226.82" y="477.38" width="523.25" height="40.53" transform="translate(-196.22 629.79) rotate(-56.46)"/>
      <rect class="cls-6" x="226.69" y="477.38" width="523.25" height="40.53" transform="translate(-196.27 629.69) rotate(-56.46)"/>
      <rect class="cls-6" x="226.57" y="477.38" width="523.25" height="40.53" transform="translate(-196.33 629.59) rotate(-56.46)"/>
      <rect class="cls-6" x="226.45" y="477.38" width="523.25" height="40.53" transform="translate(-196.38 629.48) rotate(-56.46)"/>
      <rect class="cls-6" x="226.32" y="477.38" width="523.25" height="40.53" transform="translate(-196.44 629.38) rotate(-56.46)"/>
      <rect class="cls-6" x="226.2" y="477.38" width="523.25" height="40.53" transform="translate(-196.49 629.28) rotate(-56.46)"/>
      <rect class="cls-6" x="226.08" y="477.38" width="523.25" height="40.53" transform="translate(-196.55 629.18) rotate(-56.46)"/>
      <rect class="cls-6" x="225.95" y="477.38" width="523.25" height="40.53" transform="translate(-196.6 629.07) rotate(-56.46)"/>
      <rect class="cls-6" x="225.83" y="477.38" width="523.25" height="40.53" transform="translate(-196.66 628.97) rotate(-56.46)"/>
      <rect class="cls-6" x="225.71" y="477.38" width="523.25" height="40.53" transform="translate(-196.71 628.87) rotate(-56.46)"/>
      <rect class="cls-6" x="225.59" y="477.38" width="523.25" height="40.53" transform="translate(-196.77 628.77) rotate(-56.46)"/>
      <rect class="cls-6" x="225.46" y="477.38" width="523.25" height="40.53" transform="translate(-196.82 628.66) rotate(-56.46)"/>
      <rect class="cls-6" x="225.34" y="477.38" width="523.25" height="40.53" transform="translate(-196.88 628.56) rotate(-56.46)"/>
      <rect class="cls-6" x="225.22" y="477.38" width="523.25" height="40.53" transform="translate(-196.93 628.46) rotate(-56.46)"/>
      <rect class="cls-6" x="225.09" y="477.38" width="523.25" height="40.53" transform="translate(-196.99 628.36) rotate(-56.46)"/>
      <rect class="cls-6" x="224.97" y="477.38" width="523.25" height="40.53" transform="translate(-197.04 628.25) rotate(-56.46)"/>
      <rect class="cls-6" x="224.85" y="477.38" width="523.25" height="40.53" transform="translate(-197.1 628.15) rotate(-56.46)"/>
      <rect class="cls-6" x="224.73" y="477.38" width="523.25" height="40.53" transform="translate(-197.15 628.05) rotate(-56.46)"/>
      <rect class="cls-6" x="224.6" y="477.38" width="523.25" height="40.53" transform="translate(-197.21 627.95) rotate(-56.46)"/>
      <rect class="cls-6" x="224.48" y="477.38" width="523.25" height="40.53" transform="translate(-197.26 627.84) rotate(-56.46)"/>
      <rect class="cls-6" x="224.36" y="477.38" width="523.25" height="40.53" transform="translate(-197.32 627.74) rotate(-56.46)"/>
      <rect class="cls-6" x="224.23" y="477.38" width="523.25" height="40.53" transform="translate(-197.37 627.64) rotate(-56.46)"/>
      <rect class="cls-6" x="224.11" y="477.38" width="523.25" height="40.53" transform="translate(-197.43 627.54) rotate(-56.46)"/>
      <rect class="cls-6" x="223.99" y="477.38" width="523.25" height="40.53" transform="translate(-197.48 627.44) rotate(-56.46)"/>
      <rect class="cls-6" x="223.87" y="477.38" width="523.25" height="40.53" transform="translate(-197.54 627.33) rotate(-56.46)"/>
      <rect class="cls-6" x="223.74" y="477.38" width="523.25" height="40.53" transform="translate(-197.59 627.23) rotate(-56.46)"/>
      <rect class="cls-6" x="223.62" y="477.38" width="523.25" height="40.53" transform="translate(-197.65 627.13) rotate(-56.46)"/>
      <rect class="cls-6" x="223.5" y="477.38" width="523.25" height="40.53" transform="translate(-197.7 627.03) rotate(-56.46)"/>
      <rect class="cls-6" x="223.37" y="477.38" width="523.25" height="40.53" transform="translate(-197.76 626.92) rotate(-56.46)"/>
      <rect class="cls-6" x="223.25" y="477.38" width="523.25" height="40.53" transform="translate(-197.81 626.82) rotate(-56.46)"/>
      <rect class="cls-6" x="223.13" y="477.38" width="523.25" height="40.53" transform="translate(-197.87 626.72) rotate(-56.46)"/>
      <rect class="cls-6" x="223.01" y="477.38" width="523.25" height="40.53" transform="translate(-197.92 626.62) rotate(-56.46)"/>
      <rect class="cls-6" x="222.88" y="477.38" width="523.25" height="40.53" transform="translate(-197.98 626.51) rotate(-56.46)"/>
      <rect class="cls-6" x="222.76" y="477.38" width="523.25" height="40.53" transform="translate(-198.03 626.41) rotate(-56.46)"/>
      <rect class="cls-6" x="222.64" y="477.38" width="523.25" height="40.53" transform="translate(-198.09 626.31) rotate(-56.46)"/>
      <rect class="cls-6" x="222.51" y="477.38" width="523.25" height="40.53" transform="translate(-198.14 626.21) rotate(-56.46)"/>
      <rect class="cls-6" x="222.39" y="477.38" width="523.25" height="40.53" transform="translate(-198.2 626.1) rotate(-56.46)"/>
      <rect class="cls-6" x="222.27" y="477.38" width="523.25" height="40.53" transform="translate(-198.25 626) rotate(-56.46)"/>
    </g>
    <rect id="Front" class="cls-3" x="463.63" y="236.01" width="40.53" height="523.25" transform="translate(355.53 -184.5) rotate(33.54)"/>
  </g>
  <g>
    <text class="cls-9" transform="translate(378.82 941.63)"><tspan x="0" y="0">SHUTTERR STORY</tspan></text>
    <line class="cls-1" x1="369.15" y1="926.76" x2="283.44" y2="926.76"/>
    <line class="cls-1" x1="692.24" y1="926.76" x2="610.56" y2="926.76"/>
  </g>
  <g>
    <text id="Front-2" data-name="Front" class="cls-7" transform="translate(262.65 469.12)"><tspan x="0" y="0">S</tspan></text>
    <g>
      <g>
        <text id="Back-3" data-name="Back" class="cls-5" transform="translate(522.37 854.07)"><tspan x="0" y="0">S</tspan></text>
        <path class="cls-6" d="M716.87,821.2c0,22-10.92,33-32.77,33h-108.68c-21.69,0-32.54-11-32.54-33v-86.07h53.99v73.61h65.99v-70.84l-108.22-102.45c-7.85-7.54-11.77-17.15-11.77-28.84v-80.3c0-22.15,10.85-33.23,32.54-33.23h108.68c21.84,0,32.77,10.92,32.77,32.77v80.76h-53.99v-68.07h-65.99v65.3l108.22,101.99c7.84,7.38,11.77,17.15,11.77,29.3v86.07Z"/>
        <path class="cls-6" d="M716.63,821.32c0,22-10.92,33-32.77,33h-108.68c-21.69,0-32.54-11-32.54-33v-86.07h53.99v73.61h65.99v-70.84l-108.22-102.45c-7.85-7.54-11.77-17.15-11.77-28.84v-80.3c0-22.15,10.85-33.23,32.54-33.23h108.68c21.84,0,32.77,10.92,32.77,32.77v80.76h-53.99v-68.07h-65.99v65.3l108.22,101.99c7.84,7.38,11.77,17.15,11.77,29.3v86.07Z"/>
        <path class="cls-6" d="M716.38,821.44c0,22-10.92,33-32.77,33h-108.68c-21.69,0-32.54-11-32.54-33v-86.07h53.99v73.61h65.99v-70.84l-108.22-102.45c-7.85-7.54-11.77-17.15-11.77-28.84v-80.3c0-22.15,10.85-33.23,32.54-33.23h108.68c21.84,0,32.77,10.92,32.77,32.77v80.76h-53.99v-68.07h-65.99v65.3l108.22,101.99c7.84,7.38,11.77,17.15,11.77,29.3v86.07Z"/>
        <path class="cls-6" d="M716.14,821.57c0,22-10.92,33-32.77,33h-108.68c-21.69,0-32.54-11-32.54-33v-86.07h53.99v73.61h65.99v-70.84l-108.22-102.45c-7.85-7.54-11.77-17.15-11.77-28.84v-80.3c0-22.15,10.85-33.23,32.54-33.23h108.68c21.84,0,32.77,10.92,32.77,32.77v80.76h-53.99v-68.07h-65.99v65.3l108.22,101.99c7.84,7.38,11.77,17.15,11.77,29.3v86.07Z"/>
        <path class="cls-6" d="M715.89,821.69c0,22-10.92,33-32.77,33h-108.68c-21.69,0-32.54-11-32.54-33v-86.07h53.99v73.61h65.99v-70.84l-108.22-102.45c-7.85-7.54-11.77-17.15-11.77-28.84v-80.3c0-22.15,10.85-33.23,32.54-33.23h108.68c21.84,0,32.77,10.92,32.77,32.77v80.76h-53.99v-68.07h-65.99v65.3l108.22,101.99c7.84,7.38,11.77,17.15,11.77,29.3v86.07Z"/>
        <path class="cls-6" d="M715.64,821.81c0,22-10.92,33-32.77,33h-108.68c-21.69,0-32.54-11-32.54-33v-86.07h53.99v73.61h65.99v-70.84l-108.22-102.45c-7.85-7.54-11.77-17.15-11.77-28.84v-80.3c0-22.15,10.85-33.23,32.54-33.23h108.68c21.84,0,32.77,10.92,32.77,32.77v80.76h-53.99v-68.07h-65.99v65.3l108.22,101.99c7.84,7.38,11.77,17.15,11.77,29.3v86.07Z"/>
        <path class="cls-6" d="M715.4,821.94c0,22-10.92,33-32.77,33h-108.68c-21.69,0-32.54-11-32.54-33v-86.07h53.99v73.61h65.99v-70.84l-108.22-102.45c-7.85-7.54-11.77-17.15-11.77-28.84v-80.3c0-22.15,10.85-33.23,32.54-33.23h108.68c21.84,0,32.77,10.92,32.77,32.77v80.76h-53.99v-68.07h-65.99v65.3l108.22,101.99c7.84,7.38,11.77,17.15,11.77,29.3v86.07Z"/>
        <path class="cls-6" d="M715.15,822.06c0,22-10.92,33-32.77,33h-108.68c-21.69,0-32.54-11-32.54-33v-86.07h53.99v73.61h65.99v-70.84l-108.22-102.45c-7.85-7.54-11.77-17.15-11.77-28.84v-80.3c0-22.15,10.85-33.23,32.54-33.23h108.68c21.84,0,32.77,10.92,32.77,32.77v80.76h-53.99v-68.07h-65.99v65.3l108.22,101.99c7.84,7.38,11.77,17.15,11.77,29.3v86.07Z"/>
        <path class="cls-6" d="M714.91,822.18c0,22-10.92,33-32.77,33h-108.68c-21.69,0-32.54-11-32.54-33v-86.07h53.99v73.61h65.99v-70.84l-108.22-102.45c-7.85-7.54-11.77-17.15-11.77-28.84v-80.3c0-22.15,10.85-33.23,32.54-33.23h108.68c21.84,0,32.77,10.92,32.77,32.77v80.76h-53.99v-68.07h-65.99v65.3l108.22,101.99c7.84,7.38,11.77,17.15,11.77,29.3v86.07Z"/>
        <path class="cls-6" d="M714.66,822.3c0,22-10.92,33-32.77,33h-108.68c-21.69,0-32.54-11-32.54-33v-86.07h53.99v73.61h65.99v-70.84l-108.22-102.45c-7.85-7.54-11.77-17.15-11.77-28.84v-80.3c0-22.15,10.85-33.23,32.54-33.23h108.68c21.84,0,32.77,10.92,32.77,32.77v80.76h-53.99v-68.07h-65.99v65.3l108.22,101.99c7.84,7.38,11.77,17.15,11.77,29.3v86.07Z"/>
        <path class="cls-6" d="M714.42,822.43c0,22-10.92,33-32.77,33h-108.68c-21.69,0-32.54-11-32.54-33v-86.07h53.99v73.61h65.99v-70.84l-108.22-102.45c-7.85-7.54-11.77-17.15-11.77-28.84v-80.3c0-22.15,10.85-33.23,32.54-33.23h108.68c21.84,0,32.77,10.92,32.77,32.77v80.76h-53.99v-68.07h-65.99v65.3l108.22,101.99c7.84,7.38,11.77,17.15,11.77,29.3v86.07Z"/>
        <path class="cls-6" d="M714.17,822.55c0,22-10.92,33-32.77,33h-108.68c-21.69,0-32.54-11-32.54-33v-86.07h53.99v73.61h65.99v-70.84l-108.22-102.45c-7.85-7.54-11.77-17.15-11.77-28.84v-80.3c0-22.15,10.85-33.23,32.54-33.23h108.68c21.84,0,32.77,10.92,32.77,32.77v80.76h-53.99v-68.07h-65.99v65.3l108.22,101.99c7.84,7.38,11.77,17.15,11.77,29.3v86.07Z"/>
        <path class="cls-6" d="M713.92,822.67c0,22-10.92,33-32.77,33h-108.68c-21.69,0-32.54-11-32.54-33v-86.07h53.99v73.61h65.99v-70.84l-108.22-102.45c-7.85-7.54-11.77-17.15-11.77-28.84v-80.3c0-22.15,10.85-33.23,32.54-33.23h108.68c21.84,0,32.77,10.92,32.77,32.77v80.76h-53.99v-68.07h-65.99v65.3l108.22,101.99c7.84,7.38,11.77,17.15,11.77,29.3v86.07Z"/>
        <path class="cls-6" d="M713.68,822.8c0,22-10.92,33-32.77,33h-108.68c-21.69,0-32.54-11-32.54-33v-86.07h53.99v73.61h65.99v-70.84l-108.22-102.45c-7.85-7.54-11.77-17.15-11.77-28.84v-80.3c0-22.15,10.85-33.23,32.54-33.23h108.68c21.84,0,32.77,10.92,32.77,32.77v80.76h-53.99v-68.07h-65.99v65.3l108.22,101.99c7.84,7.38,11.77,17.15,11.77,29.3v86.07Z"/>
        <path class="cls-6" d="M713.43,822.92c0,22-10.92,33-32.77,33h-108.68c-21.69,0-32.54-11-32.54-33v-86.07h53.99v73.61h65.99v-70.84l-108.22-102.45c-7.85-7.54-11.77-17.15-11.77-28.84v-80.3c0-22.15,10.85-33.23,32.54-33.23h108.68c21.84,0,32.77,10.92,32.77,32.77v80.76h-53.99v-68.07h-65.99v65.3l108.22,101.99c7.84,7.38,11.77,17.15,11.77,29.3v86.07Z"/>
        <path class="cls-6" d="M713.19,823.04c0,22-10.92,33-32.77,33h-108.68c-21.69,0-32.54-11-32.54-33v-86.07h53.99v73.61h65.99v-70.84l-108.22-102.45c-7.85-7.54-11.77-17.15-11.77-28.84v-80.3c0-22.15,10.85-33.23,32.54-33.23h108.68c21.84,0,32.77,10.92,32.77,32.77v80.76h-53.99v-68.07h-65.99v65.3l108.22,101.99c7.84,7.38,11.77,17.15,11.77,29.3v86.07Z"/>
        <path class="cls-6" d="M712.94,823.16c0,22-10.92,33-32.77,33h-108.68c-21.69,0-32.54-11-32.54-33v-86.07h53.99v73.61h65.99v-70.84l-108.22-102.45c-7.85-7.54-11.77-17.15-11.77-28.84v-80.3c0-22.15,10.85-33.23,32.54-33.23h108.68c21.84,0,32.77,10.92,32.77,32.77v80.76h-53.99v-68.07h-65.99v65.3l108.22,101.99c7.84,7.38,11.77,17.15,11.77,29.3v86.07Z"/>
        <path class="cls-6" d="M712.7,823.29c0,22-10.92,33-32.77,33h-108.68c-21.69,0-32.54-11-32.54-33v-86.07h53.99v73.61h65.99v-70.84l-108.22-102.45c-7.85-7.54-11.77-17.15-11.77-28.84v-80.3c0-22.15,10.85-33.23,32.54-33.23h108.68c21.84,0,32.77,10.92,32.77,32.77v80.76h-53.99v-68.07h-65.99v65.3l108.22,101.99c7.84,7.38,11.77,17.15,11.77,29.3v86.07Z"/>
        <path class="cls-6" d="M712.45,823.41c0,22-10.92,33-32.77,33h-108.68c-21.69,0-32.54-11-32.54-33v-86.07h53.99v73.61h65.99v-70.84l-108.22-102.45c-7.85-7.54-11.77-17.15-11.77-28.84v-80.3c0-22.15,10.85-33.23,32.54-33.23h108.68c21.84,0,32.77,10.92,32.77,32.77v80.76h-53.99v-68.07h-65.99v65.3l108.22,101.99c7.84,7.38,11.77,17.15,11.77,29.3v86.07Z"/>
        <path class="cls-6" d="M712.2,823.53c0,22-10.92,33-32.77,33h-108.68c-21.69,0-32.54-11-32.54-33v-86.07h53.99v73.61h65.99v-70.84l-108.22-102.45c-7.85-7.54-11.77-17.15-11.77-28.84v-80.3c0-22.15,10.85-33.23,32.54-33.23h108.68c21.84,0,32.77,10.92,32.77,32.77v80.76h-53.99v-68.07h-65.99v65.3l108.22,101.99c7.84,7.38,11.77,17.15,11.77,29.3v86.07Z"/>
        <path class="cls-6" d="M711.96,823.66c0,22-10.92,33-32.77,33h-108.68c-21.69,0-32.54-11-32.54-33v-86.07h53.99v73.61h65.99v-70.84l-108.22-102.45c-7.85-7.54-11.77-17.15-11.77-28.84v-80.3c0-22.15,10.85-33.23,32.54-33.23h108.68c21.84,0,32.77,10.92,32.77,32.77v80.76h-53.99v-68.07h-65.99v65.3l108.22,101.99c7.84,7.38,11.77,17.15,11.77,29.3v86.07Z"/>
        <path class="cls-6" d="M711.71,823.78c0,22-10.92,33-32.77,33h-108.68c-21.69,0-32.54-11-32.54-33v-86.07h53.99v73.61h65.99v-70.84l-108.22-102.45c-7.85-7.54-11.77-17.15-11.77-28.84v-80.3c0-22.15,10.85-33.23,32.54-33.23h108.68c21.84,0,32.77,10.92,32.77,32.77v80.76h-53.99v-68.07h-65.99v65.3l108.22,101.99c7.84,7.38,11.77,17.15,11.77,29.3v86.07Z"/>
        <path class="cls-6" d="M711.47,823.9c0,22-10.92,33-32.77,33h-108.68c-21.69,0-32.54-11-32.54-33v-86.07h53.99v73.61h65.99v-70.84l-108.22-102.45c-7.85-7.54-11.77-17.15-11.77-28.84v-80.3c0-22.15,10.85-33.23,32.54-33.23h108.68c21.84,0,32.77,10.92,32.77,32.77v80.76h-53.99v-68.07h-65.99v65.3l108.22,101.99c7.84,7.38,11.77,17.15,11.77,29.3v86.07Z"/>
        <path class="cls-6" d="M711.22,824.02c0,22-10.92,33-32.77,33h-108.68c-21.69,0-32.54-11-32.54-33v-86.07h53.99v73.61h65.99v-70.84l-108.22-102.45c-7.85-7.54-11.77-17.15-11.77-28.84v-80.3c0-22.15,10.85-33.23,32.54-33.23h108.68c21.84,0,32.77,10.92,32.77,32.77v80.76h-53.99v-68.07h-65.99v65.3l108.22,101.99c7.84,7.38,11.77,17.15,11.77,29.3v86.07Z"/>
        <path class="cls-6" d="M710.98,824.15c0,22-10.92,33-32.77,33h-108.68c-21.69,0-32.54-11-32.54-33v-86.07h53.99v73.61h65.99v-70.84l-108.22-102.45c-7.85-7.54-11.77-17.15-11.77-28.84v-80.3c0-22.15,10.85-33.23,32.54-33.23h108.68c21.84,0,32.77,10.92,32.77,32.77v80.76h-53.99v-68.07h-65.99v65.3l108.22,101.99c7.84,7.38,11.77,17.15,11.77,29.3v86.07Z"/>
        <path class="cls-6" d="M710.73,824.27c0,22-10.92,33-32.77,33h-108.68c-21.69,0-32.54-11-32.54-33v-86.07h53.99v73.61h65.99v-70.84l-108.22-102.45c-7.85-7.54-11.77-17.15-11.77-28.84v-80.3c0-22.15,10.85-33.23,32.54-33.23h108.68c21.84,0,32.77,10.92,32.77,32.77v80.76h-53.99v-68.07h-65.99v65.3l108.22,101.99c7.84,7.38,11.77,17.15,11.77,29.3v86.07Z"/>
        <path class="cls-6" d="M710.48,824.39c0,22-10.92,33-32.77,33h-108.68c-21.69,0-32.54-11-32.54-33v-86.07h53.99v73.61h65.99v-70.84l-108.22-102.45c-7.85-7.54-11.77-17.15-11.77-28.84v-80.3c0-22.15,10.85-33.23,32.54-33.23h108.68c21.84,0,32.77,10.92,32.77,32.77v80.76h-53.99v-68.07h-65.99v65.3l108.22,101.99c7.84,7.38,11.77,17.15,11.77,29.3v86.07Z"/>
        <path class="cls-6" d="M710.24,824.52c0,22-10.92,33-32.77,33h-108.68c-21.69,0-32.54-11-32.54-33v-86.07h53.99v73.61h65.99v-70.84l-108.22-102.45c-7.85-7.54-11.77-17.15-11.77-28.84v-80.3c0-22.15,10.85-33.23,32.54-33.23h108.68c21.84,0,32.77,10.92,32.77,32.77v80.76h-53.99v-68.07h-65.99v65.3l108.22,101.99c7.84,7.38,11.77,17.15,11.77,29.3v86.07Z"/>
        <path class="cls-6" d="M709.99,824.64c0,22-10.92,33-32.77,33h-108.68c-21.69,0-32.54-11-32.54-33v-86.07h53.99v73.61h65.99v-70.84l-108.22-102.45c-7.85-7.54-11.77-17.15-11.77-28.84v-80.3c0-22.15,10.85-33.23,32.54-33.23h108.68c21.84,0,32.77,10.92,32.77,32.77v80.76h-53.99v-68.07h-65.99v65.3l108.22,101.99c7.84,7.38,11.77,17.15,11.77,29.3v86.07Z"/>
        <path class="cls-6" d="M709.75,824.76c0,22-10.92,33-32.77,33h-108.68c-21.69,0-32.54-11-32.54-33v-86.07h53.99v73.61h65.99v-70.84l-108.22-102.45c-7.85-7.54-11.77-17.15-11.77-28.84v-80.3c0-22.15,10.85-33.23,32.54-33.23h108.68c21.84,0,32.77,10.92,32.77,32.77v80.76h-53.99v-68.07h-65.99v65.3l108.22,101.99c7.84,7.38,11.77,17.15,11.77,29.3v86.07Z"/>
        <path class="cls-6" d="M709.5,824.88c0,22-10.92,33-32.77,33h-108.68c-21.69,0-32.54-11-32.54-33v-86.07h53.99v73.61h65.99v-70.84l-108.22-102.45c-7.85-7.54-11.77-17.15-11.77-28.84v-80.3c0-22.15,10.85-33.23,32.54-33.23h108.68c21.84,0,32.77,10.92,32.77,32.77v80.76h-53.99v-68.07h-65.99v65.3l108.22,101.99c7.84,7.38,11.77,17.15,11.77,29.3v86.07Z"/>
        <path class="cls-6" d="M709.25,825.01c0,22-10.92,33-32.77,33h-108.68c-21.69,0-32.54-11-32.54-33v-86.07h53.99v73.61h65.99v-70.84l-108.22-102.45c-7.85-7.54-11.77-17.15-11.77-28.84v-80.3c0-22.15,10.85-33.23,32.54-33.23h108.68c21.84,0,32.77,10.92,32.77,32.77v80.76h-53.99v-68.07h-65.99v65.3l108.22,101.99c7.84,7.38,11.77,17.15,11.77,29.3v86.07Z"/>
        <path class="cls-6" d="M709.01,825.13c0,22-10.92,33-32.77,33h-108.68c-21.69,0-32.54-11-32.54-33v-86.07h53.99v73.61h65.99v-70.84l-108.22-102.45c-7.85-7.54-11.77-17.15-11.77-28.84v-80.3c0-22.15,10.85-33.23,32.54-33.23h108.68c21.84,0,32.77,10.92,32.77,32.77v80.76h-53.99v-68.07h-65.99v65.3l108.22,101.99c7.84,7.38,11.77,17.15,11.77,29.3v86.07Z"/>
        <path class="cls-6" d="M708.76,825.25c0,22-10.92,33-32.77,33h-108.68c-21.69,0-32.54-11-32.54-33v-86.07h53.99v73.61h65.99v-70.84l-108.22-102.45c-7.85-7.54-11.77-17.15-11.77-28.84v-80.3c0-22.15,10.85-33.23,32.54-33.23h108.68c21.84,0,32.77,10.92,32.77,32.77v80.76h-53.99v-68.07h-65.99v65.3l108.22,101.99c7.84,7.38,11.77,17.15,11.77,29.3v86.07Z"/>
        <path class="cls-6" d="M708.52,825.38c0,22-10.92,33-32.77,33h-108.68c-21.69,0-32.54-11-32.54-33v-86.07h53.99v73.61h65.99v-70.84l-108.22-102.45c-7.85-7.54-11.77-17.15-11.77-28.84v-80.3c0-22.15,10.85-33.23,32.54-33.23h108.68c21.84,0,32.77,10.92,32.77,32.77v80.76h-53.99v-68.07h-65.99v65.3l108.22,101.99c7.84,7.38,11.77,17.15,11.77,29.3v86.07Z"/>
        <path class="cls-6" d="M708.27,825.5c0,22-10.92,33-32.77,33h-108.68c-21.69,0-32.54-11-32.54-33v-86.07h53.99v73.61h65.99v-70.84l-108.22-102.45c-7.85-7.54-11.77-17.15-11.77-28.84v-80.3c0-22.15,10.85-33.23,32.54-33.23h108.68c21.84,0,32.77,10.92,32.77,32.77v80.76h-53.99v-68.07h-65.99v65.3l108.22,101.99c7.84,7.38,11.77,17.15,11.77,29.3v86.07Z"/>
        <path class="cls-6" d="M708.03,825.62c0,22-10.92,33-32.77,33h-108.68c-21.69,0-32.54-11-32.54-33v-86.07h53.99v73.61h65.99v-70.84l-108.22-102.45c-7.85-7.54-11.77-17.15-11.77-28.84v-80.3c0-22.15,10.85-33.23,32.54-33.23h108.68c21.84,0,32.77,10.92,32.77,32.77v80.76h-53.99v-68.07h-65.99v65.3l108.22,101.99c7.84,7.38,11.77,17.15,11.77,29.3v86.07Z"/>
        <path class="cls-6" d="M707.78,825.74c0,22-10.92,33-32.77,33h-108.68c-21.69,0-32.54-11-32.54-33v-86.07h53.99v73.61h65.99v-70.84l-108.22-102.45c-7.85-7.54-11.77-17.15-11.77-28.84v-80.3c0-22.15,10.85-33.23,32.54-33.23h108.68c21.84,0,32.77,10.92,32.77,32.77v80.76h-53.99v-68.07h-65.99v65.3l108.22,101.99c7.84,7.38,11.77,17.15,11.77,29.3v86.07Z"/>
        <path class="cls-6" d="M707.53,825.87c0,22-10.92,33-32.77,33h-108.68c-21.69,0-32.54-11-32.54-33v-86.07h53.99v73.61h65.99v-70.84l-108.22-102.45c-7.85-7.54-11.77-17.15-11.77-28.84v-80.3c0-22.15,10.85-33.23,32.54-33.23h108.68c21.84,0,32.77,10.92,32.77,32.77v80.76h-53.99v-68.07h-65.99v65.3l108.22,101.99c7.84,7.38,11.77,17.15,11.77,29.3v86.07Z"/>
        <path class="cls-6" d="M707.29,825.99c0,22-10.92,33-32.77,33h-108.68c-21.69,0-32.54-11-32.54-33v-86.07h53.99v73.61h65.99v-70.84l-108.22-102.45c-7.85-7.54-11.77-17.15-11.77-28.84v-80.3c0-22.15,10.85-33.23,32.54-33.23h108.68c21.84,0,32.77,10.92,32.77,32.77v80.76h-53.99v-68.07h-65.99v65.3l108.22,101.99c7.84,7.38,11.77,17.15,11.77,29.3v86.07Z"/>
        <path class="cls-6" d="M707.04,826.11c0,22-10.92,33-32.77,33h-108.68c-21.69,0-32.54-11-32.54-33v-86.07h53.99v73.61h65.99v-70.84l-108.22-102.45c-7.85-7.54-11.77-17.15-11.77-28.84v-80.3c0-22.15,10.85-33.23,32.54-33.23h108.68c21.84,0,32.77,10.92,32.77,32.77v80.76h-53.99v-68.07h-65.99v65.3l108.22,101.99c7.84,7.38,11.77,17.15,11.77,29.3v86.07Z"/>
        <path class="cls-6" d="M706.8,826.24c0,22-10.92,33-32.77,33h-108.68c-21.69,0-32.54-11-32.54-33v-86.07h53.99v73.61h65.99v-70.84l-108.22-102.45c-7.85-7.54-11.77-17.15-11.77-28.84v-80.3c0-22.15,10.85-33.23,32.54-33.23h108.68c21.84,0,32.77,10.92,32.77,32.77v80.76h-53.99v-68.07h-65.99v65.3l108.22,101.99c7.84,7.38,11.77,17.15,11.77,29.3v86.07Z"/>
        <path class="cls-6" d="M706.55,826.36c0,22-10.92,33-32.77,33h-108.68c-21.69,0-32.54-11-32.54-33v-86.07h53.99v73.61h65.99v-70.84l-108.22-102.45c-7.85-7.54-11.77-17.15-11.77-28.84v-80.3c0-22.15,10.85-33.23,32.54-33.23h108.68c21.84,0,32.77,10.92,32.77,32.77v80.76h-53.99v-68.07h-65.99v65.3l108.22,101.99c7.84,7.38,11.77,17.15,11.77,29.3v86.07Z"/>
        <path class="cls-6" d="M706.31,826.48c0,22-10.92,33-32.77,33h-108.68c-21.69,0-32.54-11-32.54-33v-86.07h53.99v73.61h65.99v-70.84l-108.22-102.45c-7.85-7.54-11.77-17.15-11.77-28.84v-80.3c0-22.15,10.85-33.23,32.54-33.23h108.68c21.84,0,32.77,10.92,32.77,32.77v80.76h-53.99v-68.07h-65.99v65.3l108.22,101.99c7.84,7.38,11.77,17.15,11.77,29.3v86.07Z"/>
        <path class="cls-6" d="M706.06,826.6c0,22-10.92,33-32.77,33h-108.68c-21.69,0-32.54-11-32.54-33v-86.07h53.99v73.61h65.99v-70.84l-108.22-102.45c-7.85-7.54-11.77-17.15-11.77-28.84v-80.3c0-22.15,10.85-33.23,32.54-33.23h108.68c21.84,0,32.77,10.92,32.77,32.77v80.76h-53.99v-68.07h-65.99v65.3l108.22,101.99c7.84,7.38,11.77,17.15,11.77,29.3v86.07Z"/>
        <path class="cls-6" d="M705.81,826.73c0,22-10.92,33-32.77,33h-108.68c-21.69,0-32.54-11-32.54-33v-86.07h53.99v73.61h65.99v-70.84l-108.22-102.45c-7.85-7.54-11.77-17.15-11.77-28.84v-80.3c0-22.15,10.85-33.23,32.54-33.23h108.68c21.84,0,32.77,10.92,32.77,32.77v80.76h-53.99v-68.07h-65.99v65.3l108.22,101.99c7.84,7.38,11.77,17.15,11.77,29.3v86.07Z"/>
        <path class="cls-6" d="M705.57,826.85c0,22-10.92,33-32.77,33h-108.68c-21.69,0-32.54-11-32.54-33v-86.07h53.99v73.61h65.99v-70.84l-108.22-102.45c-7.85-7.54-11.77-17.15-11.77-28.84v-80.3c0-22.15,10.85-33.23,32.54-33.23h108.68c21.84,0,32.77,10.92,32.77,32.77v80.76h-53.99v-68.07h-65.99v65.3l108.22,101.99c7.84,7.38,11.77,17.15,11.77,29.3v86.07Z"/>
        <path class="cls-6" d="M705.32,826.97c0,22-10.92,33-32.77,33h-108.68c-21.69,0-32.54-11-32.54-33v-86.07h53.99v73.61h65.99v-70.84l-108.22-102.45c-7.85-7.54-11.77-17.15-11.77-28.84v-80.3c0-22.15,10.85-33.23,32.54-33.23h108.68c21.84,0,32.77,10.92,32.77,32.77v80.76h-53.99v-68.07h-65.99v65.3l108.22,101.99c7.84,7.38,11.77,17.15,11.77,29.3v86.07Z"/>
        <path class="cls-6" d="M705.08,827.1c0,22-10.92,33-32.77,33h-108.68c-21.69,0-32.54-11-32.54-33v-86.07h53.99v73.61h65.99v-70.84l-108.22-102.45c-7.85-7.54-11.77-17.15-11.77-28.84v-80.3c0-22.15,10.85-33.23,32.54-33.23h108.68c21.84,0,32.77,10.92,32.77,32.77v80.76h-53.99v-68.07h-65.99v65.3l108.22,101.99c7.84,7.38,11.77,17.15,11.77,29.3v86.07Z"/>
        <path class="cls-6" d="M704.83,827.22c0,22-10.92,33-32.77,33h-108.68c-21.69,0-32.54-11-32.54-33v-86.07h53.99v73.61h65.99v-70.84l-108.22-102.45c-7.85-7.54-11.77-17.15-11.77-28.84v-80.3c0-22.15,10.85-33.23,32.54-33.23h108.68c21.84,0,32.77,10.92,32.77,32.77v80.76h-53.99v-68.07h-65.99v65.3l108.22,101.99c7.84,7.38,11.77,17.15,11.77,29.3v86.07Z"/>
        <path class="cls-6" d="M704.59,827.34c0,22-10.92,33-32.77,33h-108.68c-21.69,0-32.54-11-32.54-33v-86.07h53.99v73.61h65.99v-70.84l-108.22-102.45c-7.85-7.54-11.77-17.15-11.77-28.84v-80.3c0-22.15,10.85-33.23,32.54-33.23h108.68c21.84,0,32.77,10.92,32.77,32.77v80.76h-53.99v-68.07h-65.99v65.3l108.22,101.99c7.84,7.38,11.77,17.15,11.77,29.3v86.07Z"/>
        <path class="cls-6" d="M704.34,827.47c0,22-10.92,33-32.77,33h-108.68c-21.69,0-32.54-11-32.54-33v-86.07h53.99v73.61h65.99v-70.84l-108.22-102.45c-7.85-7.54-11.77-17.15-11.77-28.84v-80.3c0-22.15,10.85-33.23,32.54-33.23h108.68c21.84,0,32.77,10.92,32.77,32.77v80.76h-53.99v-68.07h-65.99v65.3l108.22,101.99c7.84,7.38,11.77,17.15,11.77,29.3v86.07Z"/>
        <path class="cls-6" d="M704.09,827.59c0,22-10.92,33-32.77,33h-108.68c-21.69,0-32.54-11-32.54-33v-86.07h53.99v73.61h65.99v-70.84l-108.22-102.45c-7.85-7.54-11.77-17.15-11.77-28.84v-80.3c0-22.15,10.85-33.23,32.54-33.23h108.68c21.84,0,32.77,10.92,32.77,32.77v80.76h-53.99v-68.07h-65.99v65.3l108.22,101.99c7.84,7.38,11.77,17.15,11.77,29.3v86.07Z"/>
        <path class="cls-6" d="M703.85,827.71c0,22-10.92,33-32.77,33h-108.68c-21.69,0-32.54-11-32.54-33v-86.07h53.99v73.61h65.99v-70.84l-108.22-102.45c-7.85-7.54-11.77-17.15-11.77-28.84v-80.3c0-22.15,10.85-33.23,32.54-33.23h108.68c21.84,0,32.77,10.92,32.77,32.77v80.76h-53.99v-68.07h-65.99v65.3l108.22,101.99c7.84,7.38,11.77,17.15,11.77,29.3v86.07Z"/>
        <path class="cls-6" d="M703.6,827.83c0,22-10.92,33-32.77,33h-108.68c-21.69,0-32.54-11-32.54-33v-86.07h53.99v73.61h65.99v-70.84l-108.22-102.45c-7.85-7.54-11.77-17.15-11.77-28.84v-80.3c0-22.15,10.85-33.23,32.54-33.23h108.68c21.84,0,32.77,10.92,32.77,32.77v80.76h-53.99v-68.07h-65.99v65.3l108.22,101.99c7.84,7.38,11.77,17.15,11.77,29.3v86.07Z"/>
        <path class="cls-6" d="M703.36,827.96c0,22-10.92,33-32.77,33h-108.68c-21.69,0-32.54-11-32.54-33v-86.07h53.99v73.61h65.99v-70.84l-108.22-102.45c-7.85-7.54-11.77-17.15-11.77-28.84v-80.3c0-22.15,10.85-33.23,32.54-33.23h108.68c21.84,0,32.77,10.92,32.77,32.77v80.76h-53.99v-68.07h-65.99v65.3l108.22,101.99c7.84,7.38,11.77,17.15,11.77,29.3v86.07Z"/>
        <path class="cls-6" d="M703.11,828.08c0,22-10.92,33-32.77,33h-108.68c-21.69,0-32.54-11-32.54-33v-86.07h53.99v73.61h65.99v-70.84l-108.22-102.45c-7.85-7.54-11.77-17.15-11.77-28.84v-80.3c0-22.15,10.85-33.23,32.54-33.23h108.68c21.84,0,32.77,10.92,32.77,32.77v80.76h-53.99v-68.07h-65.99v65.3l108.22,101.99c7.84,7.38,11.77,17.15,11.77,29.3v86.07Z"/>
        <path class="cls-6" d="M702.86,828.2c0,22-10.92,33-32.77,33h-108.68c-21.69,0-32.54-11-32.54-33v-86.07h53.99v73.61h65.99v-70.84l-108.22-102.45c-7.85-7.54-11.77-17.15-11.77-28.84v-80.3c0-22.15,10.85-33.23,32.54-33.23h108.68c21.84,0,32.77,10.92,32.77,32.77v80.76h-53.99v-68.07h-65.99v65.3l108.22,101.99c7.84,7.38,11.77,17.15,11.77,29.3v86.07Z"/>
        <path class="cls-6" d="M702.62,828.33c0,22-10.92,33-32.77,33h-108.68c-21.69,0-32.54-11-32.54-33v-86.07h53.99v73.61h65.99v-70.84l-108.22-102.45c-7.85-7.54-11.77-17.15-11.77-28.84v-80.3c0-22.15,10.85-33.23,32.54-33.23h108.68c21.84,0,32.77,10.92,32.77,32.77v80.76h-53.99v-68.07h-65.99v65.3l108.22,101.99c7.84,7.38,11.77,17.15,11.77,29.3v86.07Z"/>
        <path class="cls-6" d="M702.37,828.45c0,22-10.92,33-32.77,33h-108.68c-21.69,0-32.54-11-32.54-33v-86.07h53.99v73.61h65.99v-70.84l-108.22-102.45c-7.85-7.54-11.77-17.15-11.77-28.84v-80.3c0-22.15,10.85-33.23,32.54-33.23h108.68c21.84,0,32.77,10.92,32.77,32.77v80.76h-53.99v-68.07h-65.99v65.3l108.22,101.99c7.84,7.38,11.77,17.15,11.77,29.3v86.07Z"/>
        <path class="cls-6" d="M702.13,828.57c0,22-10.92,33-32.77,33h-108.68c-21.69,0-32.54-11-32.54-33v-86.07h53.99v73.61h65.99v-70.84l-108.22-102.45c-7.85-7.54-11.77-17.15-11.77-28.84v-80.3c0-22.15,10.85-33.23,32.54-33.23h108.68c21.84,0,32.77,10.92,32.77,32.77v80.76h-53.99v-68.07h-65.99v65.3l108.22,101.99c7.84,7.38,11.77,17.15,11.77,29.3v86.07Z"/>
        <path class="cls-6" d="M701.88,828.69c0,22-10.92,33-32.77,33h-108.68c-21.69,0-32.54-11-32.54-33v-86.07h53.99v73.61h65.99v-70.84l-108.22-102.45c-7.85-7.54-11.77-17.15-11.77-28.84v-80.3c0-22.15,10.85-33.23,32.54-33.23h108.68c21.84,0,32.77,10.92,32.77,32.77v80.76h-53.99v-68.07h-65.99v65.3l108.22,101.99c7.84,7.38,11.77,17.15,11.77,29.3v86.07Z"/>
        <path class="cls-6" d="M701.64,828.82c0,22-10.92,33-32.77,33h-108.68c-21.69,0-32.54-11-32.54-33v-86.07h53.99v73.61h65.99v-70.84l-108.22-102.45c-7.85-7.54-11.77-17.15-11.77-28.84v-80.3c0-22.15,10.85-33.23,32.54-33.23h108.68c21.84,0,32.77,10.92,32.77,32.77v80.76h-53.99v-68.07h-65.99v65.3l108.22,101.99c7.84,7.38,11.77,17.15,11.77,29.3v86.07Z"/>
        <path class="cls-6" d="M701.39,828.94c0,22-10.92,33-32.77,33h-108.68c-21.69,0-32.54-11-32.54-33v-86.07h53.99v73.61h65.99v-70.84l-108.22-102.45c-7.85-7.54-11.77-17.15-11.77-28.84v-80.3c0-22.15,10.85-33.23,32.54-33.23h108.68c21.84,0,32.77,10.92,32.77,32.77v80.76h-53.99v-68.07h-65.99v65.3l108.22,101.99c7.84,7.38,11.77,17.15,11.77,29.3v86.07Z"/>
        <path class="cls-6" d="M701.14,829.06c0,22-10.92,33-32.77,33h-108.68c-21.69,0-32.54-11-32.54-33v-86.07h53.99v73.61h65.99v-70.84l-108.22-102.45c-7.85-7.54-11.77-17.15-11.77-28.84v-80.3c0-22.15,10.85-33.23,32.54-33.23h108.68c21.84,0,32.77,10.92,32.77,32.77v80.76h-53.99v-68.07h-65.99v65.3l108.22,101.99c7.84,7.38,11.77,17.15,11.77,29.3v86.07Z"/>
        <path class="cls-6" d="M700.9,829.19c0,22-10.92,33-32.77,33h-108.68c-21.69,0-32.54-11-32.54-33v-86.07h53.99v73.61h65.99v-70.84l-108.22-102.45c-7.85-7.54-11.77-17.15-11.77-28.84v-80.3c0-22.15,10.85-33.23,32.54-33.23h108.68c21.84,0,32.77,10.92,32.77,32.77v80.76h-53.99v-68.07h-65.99v65.3l108.22,101.99c7.84,7.38,11.77,17.15,11.77,29.3v86.07Z"/>
        <path class="cls-6" d="M700.65,829.31c0,22-10.92,33-32.77,33h-108.68c-21.69,0-32.54-11-32.54-33v-86.07h53.99v73.61h65.99v-70.84l-108.22-102.45c-7.85-7.54-11.77-17.15-11.77-28.84v-80.3c0-22.15,10.85-33.23,32.54-33.23h108.68c21.84,0,32.77,10.92,32.77,32.77v80.76h-53.99v-68.07h-65.99v65.3l108.22,101.99c7.84,7.38,11.77,17.15,11.77,29.3v86.07Z"/>
        <path class="cls-6" d="M700.41,829.43c0,22-10.92,33-32.77,33h-108.68c-21.69,0-32.54-11-32.54-33v-86.07h53.99v73.61h65.99v-70.84l-108.22-102.45c-7.85-7.54-11.77-17.15-11.77-28.84v-80.3c0-22.15,10.85-33.23,32.54-33.23h108.68c21.84,0,32.77,10.92,32.77,32.77v80.76h-53.99v-68.07h-65.99v65.3l108.22,101.99c7.84,7.38,11.77,17.15,11.77,29.3v86.07Z"/>
        <path class="cls-6" d="M700.16,829.55c0,22-10.92,33-32.77,33h-108.68c-21.69,0-32.54-11-32.54-33v-86.07h53.99v73.61h65.99v-70.84l-108.22-102.45c-7.85-7.54-11.77-17.15-11.77-28.84v-80.3c0-22.15,10.85-33.23,32.54-33.23h108.68c21.84,0,32.77,10.92,32.77,32.77v80.76h-53.99v-68.07h-65.99v65.3l108.22,101.99c7.84,7.38,11.77,17.15,11.77,29.3v86.07Z"/>
        <path class="cls-6" d="M699.92,829.68c0,22-10.92,33-32.77,33h-108.68c-21.69,0-32.54-11-32.54-33v-86.07h53.99v73.61h65.99v-70.84l-108.22-102.45c-7.85-7.54-11.77-17.15-11.77-28.84v-80.3c0-22.15,10.85-33.23,32.54-33.23h108.68c21.84,0,32.77,10.92,32.77,32.77v80.76h-53.99v-68.07h-65.99v65.3l108.22,101.99c7.84,7.38,11.77,17.15,11.77,29.3v86.07Z"/>
        <path class="cls-6" d="M699.67,829.8c0,22-10.92,33-32.77,33h-108.68c-21.69,0-32.54-11-32.54-33v-86.07h53.99v73.61h65.99v-70.84l-108.22-102.45c-7.85-7.54-11.77-17.15-11.77-28.84v-80.3c0-22.15,10.85-33.23,32.54-33.23h108.68c21.84,0,32.77,10.92,32.77,32.77v80.76h-53.99v-68.07h-65.99v65.3l108.22,101.99c7.84,7.38,11.77,17.15,11.77,29.3v86.07Z"/>
        <path class="cls-6" d="M699.42,829.92c0,22-10.92,33-32.77,33h-108.68c-21.69,0-32.54-11-32.54-33v-86.07h53.99v73.61h65.99v-70.84l-108.22-102.45c-7.85-7.54-11.77-17.15-11.77-28.84v-80.3c0-22.15,10.85-33.23,32.54-33.23h108.68c21.84,0,32.77,10.92,32.77,32.77v80.76h-53.99v-68.07h-65.99v65.3l108.22,101.99c7.84,7.38,11.77,17.15,11.77,29.3v86.07Z"/>
        <path class="cls-6" d="M699.18,830.05c0,22-10.92,33-32.77,33h-108.68c-21.69,0-32.54-11-32.54-33v-86.07h53.99v73.61h65.99v-70.84l-108.22-102.45c-7.85-7.54-11.77-17.15-11.77-28.84v-80.3c0-22.15,10.85-33.23,32.54-33.23h108.68c21.84,0,32.77,10.92,32.77,32.77v80.76h-53.99v-68.07h-65.99v65.3l108.22,101.99c7.84,7.38,11.77,17.15,11.77,29.3v86.07Z"/>
        <path class="cls-6" d="M698.93,830.17c0,22-10.92,33-32.77,33h-108.68c-21.69,0-32.54-11-32.54-33v-86.07h53.99v73.61h65.99v-70.84l-108.22-102.45c-7.85-7.54-11.77-17.15-11.77-28.84v-80.3c0-22.15,10.85-33.23,32.54-33.23h108.68c21.84,0,32.77,10.92,32.77,32.77v80.76h-53.99v-68.07h-65.99v65.3l108.22,101.99c7.84,7.38,11.77,17.15,11.77,29.3v86.07Z"/>
        <path class="cls-6" d="M698.69,830.29c0,22-10.92,33-32.77,33h-108.68c-21.69,0-32.54-11-32.54-33v-86.07h53.99v73.61h65.99v-70.84l-108.22-102.45c-7.85-7.54-11.77-17.15-11.77-28.84v-80.3c0-22.15,10.85-33.23,32.54-33.23h108.68c21.84,0,32.77,10.92,32.77,32.77v80.76h-53.99v-68.07h-65.99v65.3l108.22,101.99c7.84,7.38,11.77,17.15,11.77,29.3v86.07Z"/>
        <path class="cls-6" d="M698.44,830.41c0,22-10.92,33-32.77,33h-108.68c-21.69,0-32.54-11-32.54-33v-86.07h53.99v73.61h65.99v-70.84l-108.22-102.45c-7.85-7.54-11.77-17.15-11.77-28.84v-80.3c0-22.15,10.85-33.23,32.54-33.23h108.68c21.84,0,32.77,10.92,32.77,32.77v80.76h-53.99v-68.07h-65.99v65.3l108.22,101.99c7.84,7.38,11.77,17.15,11.77,29.3v86.07Z"/>
        <path class="cls-6" d="M698.2,830.54c0,22-10.92,33-32.77,33h-108.68c-21.69,0-32.54-11-32.54-33v-86.07h53.99v73.61h65.99v-70.84l-108.22-102.45c-7.85-7.54-11.77-17.15-11.77-28.84v-80.3c0-22.15,10.85-33.23,32.54-33.23h108.68c21.84,0,32.77,10.92,32.77,32.77v80.76h-53.99v-68.07h-65.99v65.3l108.22,101.99c7.84,7.38,11.77,17.15,11.77,29.3v86.07Z"/>
        <path class="cls-6" d="M697.95,830.66c0,22-10.92,33-32.77,33h-108.68c-21.69,0-32.54-11-32.54-33v-86.07h53.99v73.61h65.99v-70.84l-108.22-102.45c-7.85-7.54-11.77-17.15-11.77-28.84v-80.3c0-22.15,10.85-33.23,32.54-33.23h108.68c21.84,0,32.77,10.92,32.77,32.77v80.76h-53.99v-68.07h-65.99v65.3l108.22,101.99c7.84,7.38,11.77,17.15,11.77,29.3v86.07Z"/>
        <path class="cls-6" d="M697.7,830.78c0,22-10.92,33-32.77,33h-108.68c-21.69,0-32.54-11-32.54-33v-86.07h53.99v73.61h65.99v-70.84l-108.22-102.45c-7.85-7.54-11.77-17.15-11.77-28.84v-80.3c0-22.15,10.85-33.23,32.54-33.23h108.68c21.84,0,32.77,10.92,32.77,32.77v80.76h-53.99v-68.07h-65.99v65.3l108.22,101.99c7.84,7.38,11.77,17.15,11.77,29.3v86.07Z"/>
        <path class="cls-6" d="M697.46,830.91c0,22-10.92,33-32.77,33h-108.68c-21.69,0-32.54-11-32.54-33v-86.07h53.99v73.61h65.99v-70.84l-108.22-102.45c-7.85-7.54-11.77-17.15-11.77-28.84v-80.3c0-22.15,10.85-33.23,32.54-33.23h108.68c21.84,0,32.77,10.92,32.77,32.77v80.76h-53.99v-68.07h-65.99v65.3l108.22,101.99c7.84,7.38,11.77,17.15,11.77,29.3v86.07Z"/>
        <path class="cls-6" d="M697.21,831.03c0,22-10.92,33-32.77,33h-108.68c-21.69,0-32.54-11-32.54-33v-86.07h53.99v73.61h65.99v-70.84l-108.22-102.45c-7.85-7.54-11.77-17.15-11.77-28.84v-80.3c0-22.15,10.85-33.23,32.54-33.23h108.68c21.84,0,32.77,10.92,32.77,32.77v80.76h-53.99v-68.07h-65.99v65.3l108.22,101.99c7.84,7.38,11.77,17.15,11.77,29.3v86.07Z"/>
        <path class="cls-6" d="M696.97,831.15c0,22-10.92,33-32.77,33h-108.68c-21.69,0-32.54-11-32.54-33v-86.07h53.99v73.61h65.99v-70.84l-108.22-102.45c-7.85-7.54-11.77-17.15-11.77-28.84v-80.3c0-22.15,10.85-33.23,32.54-33.23h108.68c21.84,0,32.77,10.92,32.77,32.77v80.76h-53.99v-68.07h-65.99v65.3l108.22,101.99c7.84,7.38,11.77,17.15,11.77,29.3v86.07Z"/>
        <path class="cls-6" d="M696.72,831.27c0,22-10.92,33-32.77,33h-108.68c-21.69,0-32.54-11-32.54-33v-86.07h53.99v73.61h65.99v-70.84l-108.22-102.45c-7.85-7.54-11.77-17.15-11.77-28.84v-80.3c0-22.15,10.85-33.23,32.54-33.23h108.68c21.84,0,32.77,10.92,32.77,32.77v80.76h-53.99v-68.07h-65.99v65.3l108.22,101.99c7.84,7.38,11.77,17.15,11.77,29.3v86.07Z"/>
        <path class="cls-6" d="M696.47,831.4c0,22-10.92,33-32.77,33h-108.68c-21.69,0-32.54-11-32.54-33v-86.07h53.99v73.61h65.99v-70.84l-108.22-102.45c-7.85-7.54-11.77-17.15-11.77-28.84v-80.3c0-22.15,10.85-33.23,32.54-33.23h108.68c21.84,0,32.77,10.92,32.77,32.77v80.76h-53.99v-68.07h-65.99v65.3l108.22,101.99c7.84,7.38,11.77,17.15,11.77,29.3v86.07Z"/>
        <path class="cls-6" d="M696.23,831.52c0,22-10.92,33-32.77,33h-108.68c-21.69,0-32.54-11-32.54-33v-86.07h53.99v73.61h65.99v-70.84l-108.22-102.45c-7.85-7.54-11.77-17.15-11.77-28.84v-80.3c0-22.15,10.85-33.23,32.54-33.23h108.68c21.84,0,32.77,10.92,32.77,32.77v80.76h-53.99v-68.07h-65.99v65.3l108.22,101.99c7.84,7.38,11.77,17.15,11.77,29.3v86.07Z"/>
        <path class="cls-6" d="M695.98,831.64c0,22-10.92,33-32.77,33h-108.68c-21.69,0-32.54-11-32.54-33v-86.07h53.99v73.61h65.99v-70.84l-108.22-102.45c-7.85-7.54-11.77-17.15-11.77-28.84v-80.3c0-22.15,10.85-33.23,32.54-33.23h108.68c21.84,0,32.77,10.92,32.77,32.77v80.76h-53.99v-68.07h-65.99v65.3l108.22,101.99c7.84,7.38,11.77,17.15,11.77,29.3v86.07Z"/>
        <path class="cls-6" d="M695.74,831.77c0,22-10.92,33-32.77,33h-108.68c-21.69,0-32.54-11-32.54-33v-86.07h53.99v73.61h65.99v-70.84l-108.22-102.45c-7.85-7.54-11.77-17.15-11.77-28.84v-80.3c0-22.15,10.85-33.23,32.54-33.23h108.68c21.84,0,32.77,10.92,32.77,32.77v80.76h-53.99v-68.07h-65.99v65.3l108.22,101.99c7.84,7.38,11.77,17.15,11.77,29.3v86.07Z"/>
        <path class="cls-6" d="M695.49,831.89c0,22-10.92,33-32.77,33h-108.68c-21.69,0-32.54-11-32.54-33v-86.07h53.99v73.61h65.99v-70.84l-108.22-102.45c-7.85-7.54-11.77-17.15-11.77-28.84v-80.3c0-22.15,10.85-33.23,32.54-33.23h108.68c21.84,0,32.77,10.92,32.77,32.77v80.76h-53.99v-68.07h-65.99v65.3l108.22,101.99c7.84,7.38,11.77,17.15,11.77,29.3v86.07Z"/>
        <path class="cls-6" d="M695.25,832.01c0,22-10.92,33-32.77,33h-108.68c-21.69,0-32.54-11-32.54-33v-86.07h53.99v73.61h65.99v-70.84l-108.22-102.45c-7.85-7.54-11.77-17.15-11.77-28.84v-80.3c0-22.15,10.85-33.23,32.54-33.23h108.68c21.84,0,32.77,10.92,32.77,32.77v80.76h-53.99v-68.07h-65.99v65.3l108.22,101.99c7.84,7.38,11.77,17.15,11.77,29.3v86.07Z"/>
        <path class="cls-6" d="M695,832.13c0,22-10.92,33-32.77,33h-108.68c-21.69,0-32.54-11-32.54-33v-86.07h53.99v73.61h65.99v-70.84l-108.22-102.45c-7.85-7.54-11.77-17.15-11.77-28.84v-80.3c0-22.15,10.85-33.23,32.54-33.23h108.68c21.84,0,32.77,10.92,32.77,32.77v80.76h-53.99v-68.07h-65.99v65.3l108.22,101.99c7.84,7.38,11.77,17.15,11.77,29.3v86.07Z"/>
        <path class="cls-6" d="M694.75,832.26c0,22-10.92,33-32.77,33h-108.68c-21.69,0-32.54-11-32.54-33v-86.07h53.99v73.61h65.99v-70.84l-108.22-102.45c-7.85-7.54-11.77-17.15-11.77-28.84v-80.3c0-22.15,10.85-33.23,32.54-33.23h108.68c21.84,0,32.77,10.92,32.77,32.77v80.76h-53.99v-68.07h-65.99v65.3l108.22,101.99c7.84,7.38,11.77,17.15,11.77,29.3v86.07Z"/>
        <path class="cls-6" d="M694.51,832.38c0,22-10.92,33-32.77,33h-108.68c-21.69,0-32.54-11-32.54-33v-86.07h53.99v73.61h65.99v-70.84l-108.22-102.45c-7.85-7.54-11.77-17.15-11.77-28.84v-80.3c0-22.15,10.85-33.23,32.54-33.23h108.68c21.84,0,32.77,10.92,32.77,32.77v80.76h-53.99v-68.07h-65.99v65.3l108.22,101.99c7.84,7.38,11.77,17.15,11.77,29.3v86.07Z"/>
        <path class="cls-6" d="M694.26,832.5c0,22-10.92,33-32.77,33h-108.68c-21.69,0-32.54-11-32.54-33v-86.07h53.99v73.61h65.99v-70.84l-108.22-102.45c-7.85-7.54-11.77-17.15-11.77-28.84v-80.3c0-22.15,10.85-33.23,32.54-33.23h108.68c21.84,0,32.77,10.92,32.77,32.77v80.76h-53.99v-68.07h-65.99v65.3l108.22,101.99c7.84,7.38,11.77,17.15,11.77,29.3v86.07Z"/>
        <path class="cls-6" d="M694.02,832.63c0,22-10.92,33-32.77,33h-108.68c-21.69,0-32.54-11-32.54-33v-86.07h53.99v73.61h65.99v-70.84l-108.22-102.45c-7.85-7.54-11.77-17.15-11.77-28.84v-80.3c0-22.15,10.85-33.23,32.54-33.23h108.68c21.84,0,32.77,10.92,32.77,32.77v80.76h-53.99v-68.07h-65.99v65.3l108.22,101.99c7.84,7.38,11.77,17.15,11.77,29.3v86.07Z"/>
        <path class="cls-6" d="M693.77,832.75c0,22-10.92,33-32.77,33h-108.68c-21.69,0-32.54-11-32.54-33v-86.07h53.99v73.61h65.99v-70.84l-108.22-102.45c-7.85-7.54-11.77-17.15-11.77-28.84v-80.3c0-22.15,10.85-33.23,32.54-33.23h108.68c21.84,0,32.77,10.92,32.77,32.77v80.76h-53.99v-68.07h-65.99v65.3l108.22,101.99c7.84,7.38,11.77,17.15,11.77,29.3v86.07Z"/>
        <path class="cls-6" d="M693.53,832.87c0,22-10.92,33-32.77,33h-108.68c-21.69,0-32.54-11-32.54-33v-86.07h53.99v73.61h65.99v-70.84l-108.22-102.45c-7.85-7.54-11.77-17.15-11.77-28.84v-80.3c0-22.15,10.85-33.23,32.54-33.23h108.68c21.84,0,32.77,10.92,32.77,32.77v80.76h-53.99v-68.07h-65.99v65.3l108.22,101.99c7.84,7.38,11.77,17.15,11.77,29.3v86.07Z"/>
        <path class="cls-6" d="M693.28,832.99c0,22-10.92,33-32.77,33h-108.68c-21.69,0-32.54-11-32.54-33v-86.07h53.99v73.61h65.99v-70.84l-108.22-102.45c-7.85-7.54-11.77-17.15-11.77-28.84v-80.3c0-22.15,10.85-33.23,32.54-33.23h108.68c21.84,0,32.77,10.92,32.77,32.77v80.76h-53.99v-68.07h-65.99v65.3l108.22,101.99c7.84,7.38,11.77,17.15,11.77,29.3v86.07Z"/>
        <path class="cls-6" d="M693.03,833.12c0,22-10.92,33-32.77,33h-108.68c-21.69,0-32.54-11-32.54-33v-86.07h53.99v73.61h65.99v-70.84l-108.22-102.45c-7.85-7.54-11.77-17.15-11.77-28.84v-80.3c0-22.15,10.85-33.23,32.54-33.23h108.68c21.84,0,32.77,10.92,32.77,32.77v80.76h-53.99v-68.07h-65.99v65.3l108.22,101.99c7.84,7.38,11.77,17.15,11.77,29.3v86.07Z"/>
        <path class="cls-6" d="M692.79,833.24c0,22-10.92,33-32.77,33h-108.68c-21.69,0-32.54-11-32.54-33v-86.07h53.99v73.61h65.99v-70.84l-108.22-102.45c-7.85-7.54-11.77-17.15-11.77-28.84v-80.3c0-22.15,10.85-33.23,32.54-33.23h108.68c21.84,0,32.77,10.92,32.77,32.77v80.76h-53.99v-68.07h-65.99v65.3l108.22,101.99c7.84,7.38,11.77,17.15,11.77,29.3v86.07Z"/>
        <path class="cls-6" d="M692.54,833.36c0,22-10.92,33-32.77,33h-108.68c-21.69,0-32.54-11-32.54-33v-86.07h53.99v73.61h65.99v-70.84l-108.22-102.45c-7.85-7.54-11.77-17.15-11.77-28.84v-80.3c0-22.15,10.85-33.23,32.54-33.23h108.68c21.84,0,32.77,10.92,32.77,32.77v80.76h-53.99v-68.07h-65.99v65.3l108.22,101.99c7.84,7.38,11.77,17.15,11.77,29.3v86.07Z"/>
        <text class="cls-5" transform="translate(497.55 866.48)"><tspan x="0" y="0">S</tspan></text>
      </g>
      <text id="Front-3" data-name="Front" class="cls-7" transform="translate(497.55 866.48)"><tspan x="0" y="0">S</tspan></text>
    </g>
  </g>
</svg>